<svg xmlns="http://www.w3.org/2000/svg" viewBox="0 0 1440 320"><path fill="#d8fec6" fill-opacity="1" d="M0,32L17.1,48C34.3,64,69,96,103,128C137.1,160,171,192,206,170.7C240,149,274,75,309,42.7C342.9,11,377,21,411,42.7C445.7,64,480,96,514,96C548.6,96,583,64,617,90.7C651.4,117,686,203,720,224C754.3,245,789,203,823,181.3C857.1,160,891,160,926,181.3C960,203,994,245,1029,229.3C1062.9,213,1097,139,1131,138.7C1165.7,139,1200,213,1234,202.7C1268.6,192,1303,96,1337,69.3C1371.4,43,1406,85,1423,106.7L1440,128L1440,0L1422.9,0C1405.7,0,1371,0,1337,0C1302.9,0,1269,0,1234,0C1200,0,1166,0,1131,0C1097.1,0,1063,0,1029,0C994.3,0,960,0,926,0C891.4,0,857,0,823,0C788.6,0,754,0,720,0C685.7,0,651,0,617,0C582.9,0,549,0,514,0C480,0,446,0,411,0C377.1,0,343,0,309,0C274.3,0,240,0,206,0C171.4,0,137,0,103,0C68.6,0,34,0,17,0L0,0Z"></path></svg>