<svg xmlns="http://www.w3.org/2000/svg" viewBox="0 0 1440 320"><path fill="#d8fec6" fill-opacity="1" d="M0,256L17.1,245.3C34.3,235,69,213,103,208C137.1,203,171,213,206,202.7C240,192,274,160,309,122.7C342.9,85,377,43,411,58.7C445.7,75,480,149,514,186.7C548.6,224,583,224,617,218.7C651.4,213,686,203,720,170.7C754.3,139,789,85,823,58.7C857.1,32,891,32,926,64C960,96,994,160,1029,154.7C1062.9,149,1097,75,1131,58.7C1165.7,43,1200,85,1234,106.7C1268.6,128,1303,128,1337,138.7C1371.4,149,1406,171,1423,181.3L1440,192L1440,320L1422.9,320C1405.7,320,1371,320,1337,320C1302.9,320,1269,320,1234,320C1200,320,1166,320,1131,320C1097.1,320,1063,320,1029,320C994.3,320,960,320,926,320C891.4,320,857,320,823,320C788.6,320,754,320,720,320C685.7,320,651,320,617,320C582.9,320,549,320,514,320C480,320,446,320,411,320C377.1,320,343,320,309,320C274.3,320,240,320,206,320C171.4,320,137,320,103,320C68.6,320,34,320,17,320L0,320Z"></path></svg>