<svg xmlns="http://www.w3.org/2000/svg" xmlns:xlink="http://www.w3.org/1999/xlink" data-name="Layer 1" preserveAspectRatio="xMidYMid meet" version="1.0" viewBox="-0.0 0.0 453.0 269.8" zoomAndPan="magnify" style="fill: rgb(0, 0, 0);" original_string_length="24361"><g id="__id124_sgggrde97l"><path d="M96.5197,185.2101c-3.33,7.99-7.32,15.64-11.91,22.87-9.29-4.53-17.8-10.61-25.12-17.93l-31.91-31.91c-.39-.39-.77-.78-1.14-1.17,17.91,18.55,43.27,29.48,70.08,28.14Z" style="fill: rgb(249, 188, 96);"/></g><g id="__id125_sgggrde97l"><path d="M216.4697,136.5801c-1.81,15.55-5.94,30.38-12.05,44.15-20.15,45.47-61.79,79.3-112.04,88.6l-31.91-31.92c1.45-1.3799,2.88-2.78,4.27-4.22,.46-.46,.91-.93,1.35-1.4,1.38-1.44,2.72-2.9,4.03-4.4,.36-.4,.71-.8,1.05-1.2,1.93-2.23,3.79-4.52,5.57-6.86,.38-.48,.74-.96,1.1-1.44,.48-.63,.95-1.27,1.41-1.92,.5-.68,.99-1.37,1.48-2.06,.38-.54,.76-1.09,1.13-1.65,.94-1.38,1.86-2.77,2.75-4.18,4.59-7.23,8.58-14.88,11.91-22.87-26.81,1.34-52.17-9.59-70.08-28.14-.4399-.46-.8799-.92-1.3199-1.39l-.27-.3c-.38-.41-.75-.82-1.12-1.24-.33-.37-.66-.75-.98-1.13-.34-.38-.67-.77-.9901-1.16-.89-1.08-1.7599-2.17-2.61-3.29-.42-.55-.83-1.11-1.23-1.67-1.01-1.39-1.98-2.82-2.9-4.27-.36-.55-.71-1.11-1.05-1.67-.02-.02-.03-.04-.04-.06-.38-.61-.7401-1.23-1.1-1.86-.46-.78-.91-1.58-1.34-2.39-.27-.5-.54-1.01-.8-1.52-1.3199-2.56-2.53-5.19-3.61-7.9-.2-.49-.39-.99-.58-1.49-.95-2.48-1.79-5.02-2.52-7.61-.38-1.33-.73-2.67-1.04-4.02-.36-1.5099-.67-3.03-.95-4.56-.14-.77-.27-1.55-.39-2.32-.01-.04-.01-.08-.02-.12-.23-1.5099-.43-3.04-.59-4.58-.32-3.15-.49-6.36-.49-9.62,0-.87,.0099-1.7401,.04-2.61,.02-.79,.05-1.57,.09-2.34,.03-.54,.06-1.08,.11-1.62,.01-.26,.03-.51,.05-.77,.04-.56,.09-1.13,.15-1.69,.03-.31,.0601-.63,.1-.95,.03-.35,.07-.7,.12-1.06,.08-.74,.18-1.49,.29-2.23v-.01c.12-.87,.26-1.73,.41-2.59,.12-.69,.25-1.38,.39-2.0601,.18-.99,.39-1.96,.62-2.93,.14-.61,.28-1.22,.44-1.82l.12-.48c.09-.35,.18-.7,.28-1.05,.14-.54,.3-1.08,.45-1.62,.04-.14,.08-.27,.12-.4,.21-.71,.43-1.42,.66-2.13,.01-.05,.03-.1,.05-.15,.21-.66,.43-1.31,.66-1.96,.08-.26,.18-.53,.28-.79,.22-.61,.44-1.22,.68-1.82,.02-.07,.05-.15,.08-.22,.28-.73,.57-1.46,.88-2.18,.02-.06,.04-.12,.07-.18,.32-.77,.65-1.53,.99-2.29,.77-1.71,1.6-3.4,2.48-5.05,.29-.57,.59-1.12,.9-1.6801,.03-.06,.06-.11,.09-.17,.36-.64,.72-1.27,1.09-1.9,.0601-.1,.1201-.21,.1801-.31,.83-1.4,1.7-2.78,2.6-4.13,.47-.7,.94-1.39,1.43-2.08,.97-1.37,1.97-2.71,3.01-4.02,.46-.59,.93-1.17,1.41-1.74,.1801-.22,.36-.44,.56-.66,.38-.46,.77-.9,1.17-1.35,.04-.07,.1-.13,.17-.19,.51-.59,1.05-1.18,1.59-1.76,0-.0099,.02-.02,.02-.02,.51-.55,1.04-1.1,1.57-1.64,.07-.08,.15-.17,.24-.24,.51-.53,1.03-1.04,1.55-1.54,2.78-2.7,5.72-5.21,8.8101-7.52,.42-.32,.86-.64,1.29-.95,1.17-.85,2.36-1.67,3.57-2.46,.45-.3,.9-.59,1.36-.87,.13-.09,.27-.18,.4-.25,.43-.28,.87-.54,1.31-.8,.49-.31,.99-.6,1.48-.87,.53-.31,1.06-.61,1.59-.89,.7-.4,1.4-.77,2.11-1.13,.24-.13,.48-.25,.72-.37,.5-.25,1-.5,1.51-.74,.67-.33,1.35-.65,2.03-.95,.68-.31,1.37-.61,2.06-.9,.5099-.22,1.03-.44,1.55-.64,1.57-.64,3.17-1.23,4.78-1.77,.71-.24,1.43-.48,2.16-.7,.69-.22,1.39-.43,2.1-.6299,.11-.03,.21-.0601,.32-.08,.49-.15,.99-.28,1.49-.41,.28-.08,.56-.16,.85-.22,.54-.14,1.08-.27,1.62-.39,.13-.04,.27-.07,.41-.1,.68-.16,1.37-.31,2.06-.45,.72-.15,1.44-.29,2.16-.42,.07-.01,.14-.02,.22-.04,1.32-.23,2.64-.44,3.98-.61h.02c.41-.06,.81-.11,1.21-.15,.5-.0699,1-.12,1.49-.17,.08-.01,.15-.02,.22-.02,.65-.0699,1.3-.1299,1.95-.18,.15-.0099,.31-.02,.46-.03,.61-.05,1.22-.09,1.83-.12l.54-.03c.67-.03,1.35-.06,2.03-.07,.05-.0099,.1-.0099,.15-.0099,.78-.02,1.57-.03,2.36-.03,2.46,0,4.89,.1,7.3,.29,1.32,.1,2.65,.23,3.96,.4,4.37,.52,8.65,1.36,12.81,2.48,.4,.11,.8,.22,1.19,.33,3.64,1.03,7.19,2.28,10.63,3.73,.7,.3,1.4,.6,2.1,.92,1.14,.5099,2.26,1.05,3.3701,1.61,.89,.44,1.77,.9,2.65,1.38,1.97,1.06,3.89,2.2,5.76,3.4,4.38,2.8,8.5,5.96,12.34,9.45,1.09,.99,2.16,2.01,3.21,3.06h.01l31.91,31.9,.01,.01c19.2,19.2,30.01,46.86,26.33,77.12Z" style="fill: rgb(249, 188, 96);"/></g><g id="__id126_sgggrde97l"><path d="M216.4697,136.5801c-1.81,15.55-5.94,30.38-12.05,44.15L96.8698,73.1801,116.9597,3.6701c.4,.11,.8,.22,1.19,.33,3.64,1.03,7.19,2.28,10.63,3.73,.7,.3,1.4,.6,2.1,.92,1.14,.5099,2.26,1.05,3.3701,1.61,.89,.44,1.77,.9,2.65,1.38,1.97,1.06,3.89,2.2,5.76,3.4,4.38,2.8,8.5,5.96,12.34,9.45,1.09,.99,2.16,2.01,3.21,3.06h.01l31.91,31.9,.01,.01c19.2,19.2,30.01,46.86,26.33,77.12Z" style="fill: rgb(202, 179, 225);"/></g><g id="__id127_sgggrde97l"><path d="M184.5497,104.6701c-7.77,66.88-58.62,120.62-124.08,132.74,1.45-1.3799,2.88-2.78,4.27-4.22,.46-.46,.91-.93,1.35-1.4,1.38-1.44,2.72-2.9,4.03-4.4,.35-.4,.7-.8,1.05-1.2,1.93-2.23,3.79-4.52,5.57-6.86,.38-.48,.74-.96,1.1-1.44,.48-.64,.95-1.28,1.41-1.92,.5-.68,.99-1.37,1.48-2.06,.38-.54,.76-1.09,1.13-1.65,.94-1.38,1.86-2.77,2.75-4.18,4.59-7.23,8.58-14.88,11.91-22.87-26.81,1.34-52.17-9.59-70.08-28.14-.4399-.46-.8799-.92-1.3199-1.39l-.27-.3c-.38-.41-.75-.82-1.12-1.24-.33-.37-.66-.75-.98-1.13-.34-.38-.67-.77-.9901-1.16-.89-1.08-1.7599-2.17-2.61-3.29-.42-.55-.83-1.11-1.23-1.67-1.01-1.39-1.98-2.82-2.9-4.27-.36-.55-.71-1.11-1.05-1.67-.02-.02-.03-.04-.04-.06-.38-.61-.7401-1.23-1.1-1.86-.46-.78-.91-1.58-1.34-2.39-.27-.5-.54-1.01-.8-1.52-1.3199-2.56-2.53-5.19-3.61-7.9-.2-.49-.39-.99-.58-1.49-.95-2.48-1.79-5.02-2.52-7.61-.38-1.33-.73-2.67-1.04-4.02-.36-1.5099-.67-3.03-.95-4.56-.14-.77-.27-1.55-.39-2.32-.01-.04-.01-.08-.02-.12-.23-1.5099-.43-3.04-.59-4.58-.32-3.15-.49-6.36-.49-9.62,0-.87,.0099-1.7401,.04-2.61,.02-.79,.05-1.57,.09-2.34,.03-.54,.06-1.08,.11-1.62,.01-.26,.03-.51,.05-.77,.04-.56,.09-1.13,.15-1.69,.03-.31,.0601-.63,.1-.95,.03-.35,.07-.7,.12-1.06,.08-.74,.18-1.49,.29-2.23v-.01c.12-.87,.26-1.73,.41-2.59,.12-.69,.25-1.38,.39-2.0601,.18-.99,.39-1.96,.62-2.93,.14-.61,.28-1.22,.44-1.82l.12-.48c.09-.35,.18-.7,.28-1.05,.14-.54,.3-1.08,.45-1.62,.04-.14,.08-.27,.12-.4,.21-.71,.43-1.42,.66-2.13,.01-.05,.03-.1,.05-.15,.21-.66,.43-1.31,.66-1.96,.08-.26,.18-.53,.28-.79,.22-.61,.44-1.22,.68-1.82,.02-.07,.05-.15,.08-.22,.28-.73,.57-1.46,.88-2.18,.02-.06,.04-.12,.07-.18,.32-.77,.65-1.53,.99-2.29,.77-1.71,1.6-3.4,2.48-5.05,.29-.57,.59-1.12,.9-1.6801,.03-.06,.06-.11,.09-.17,.36-.64,.72-1.27,1.09-1.9,.0601-.1,.1201-.21,.1801-.31,.83-1.4,1.69-2.78,2.6-4.13,.47-.7,.94-1.39,1.43-2.08,.96-1.37,1.97-2.71,3.01-4.02,.46-.59,.93-1.17,1.41-1.74,.1801-.22,.36-.44,.56-.66,.38-.46,.77-.9,1.17-1.35,.04-.07,.1-.13,.17-.19,.51-.59,1.05-1.18,1.59-1.76,0-.0099,.02-.02,.02-.02,.51-.55,1.04-1.1,1.57-1.64,.07-.08,.15-.17,.24-.24,.51-.53,1.03-1.04,1.55-1.54,2.78-2.7,5.72-5.21,8.8101-7.52,.42-.32,.86-.64,1.29-.95,1.17-.85,2.36-1.67,3.57-2.46,.45-.3,.9-.59,1.36-.87,.13-.09,.27-.18,.4-.25,.43-.28,.87-.54,1.31-.8,.49-.31,.99-.6,1.48-.87,.53-.31,1.06-.61,1.59-.89,.7-.4,1.4-.77,2.11-1.13,.24-.13,.48-.25,.72-.37,.5-.25,1-.5,1.51-.74,.67-.33,1.35-.65,2.03-.95,.68-.31,1.37-.61,2.06-.9,.5099-.22,1.03-.44,1.55-.64,1.57-.64,3.17-1.23,4.78-1.77,.71-.24,1.43-.48,2.16-.7,.69-.22,1.39-.43,2.1-.6299,.11-.03,.21-.0601,.32-.08,.49-.15,.99-.28,1.49-.41,.28-.08,.56-.16,.85-.22,.54-.14,1.08-.27,1.62-.39,.13-.04,.27-.07,.41-.1,.68-.16,1.37-.31,2.06-.45,.72-.15,1.44-.29,2.16-.42,.07-.01,.14-.02,.22-.04,1.32-.23,2.64-.44,3.98-.61h.02c.41-.06,.81-.11,1.21-.15,.5-.0699,1-.12,1.49-.17,.08-.01,.15-.02,.22-.02,.65-.0699,1.3-.1299,1.95-.18,.15-.0099,.31-.02,.46-.03,.61-.05,1.22-.09,1.83-.12l.54-.03c.67-.03,1.35-.06,2.03-.07,.05-.0099,.1-.0099,.15-.0099,.78-.02,1.57-.03,2.36-.03,2.46,0,4.89,.1,7.3,.29,1.33,.1,2.65,.23,3.96,.4,4.79,.57,9.47,1.52,14,2.81,3.64,1.03,7.19,2.28,10.63,3.73,.7,.3,1.4,.6,2.1,.92,1.13,.5099,2.26,1.04,3.3701,1.61,.89,.44,1.77,.9,2.65,1.38,1.97,1.06,3.89,2.2,5.76,3.4,4.38,2.8,8.5,5.96,12.34,9.45,1.09,.99,2.17,2.01,3.21,3.06h.01c19.2,19.2,30.01,46.86,26.33,77.12Z" style="fill: rgb(202, 179, 225);"/></g><g id="__id128_sgggrde97l"><path d="M190.4834,59.1016l-31.9155-31.9087c-.0963-.0963-.1981-.1849-.2947-.2807-.9406-.9316-1.8949-1.8464-2.871-2.7339-.231-.2106-.4673-.4131-.7001-.6212-.7305-.6509-1.4703-1.2895-2.2194-1.9156-.6293-.5281-1.2669-1.0424-1.908-1.5523-.3887-.3078-.7784-.614-1.1716-.9152C136.5825,9.3053,121.5393,3.0289,105.5085,.8654c-.9299-.1276-1.8622-.2437-2.7975-.3432-.4754-.0496-.9521-.0917-1.4291-.1341-1.1802-.1072-2.3632-.1981-3.5505-.2601-.2131-.0109-.4271-.0163-.6404-.0257-1.3967-.0633-2.7968-.1022-4.2013-.1022-1.243,0-2.4785,.0319-3.7098,.0806-.1553,.0062-.3106,.0107-.4658,.0178-1.2653,.0563-2.5237,.139-3.7755,.2457l-.0674,.006c-12.0639,1.0366-23.4761,4.3866-33.7894,9.6074-.1423,.0717-.2857,.1404-.4276,.2128-.8655,.4438-1.7203,.9052-2.5699,1.3751-4.901,2.696-9.5762,5.8279-13.9411,9.3966C17.3978,34.6338,6.1708,53.3817,1.9146,74.0907c-.0104,.0504-.0215,.1005-.0319,.1509-.1233,.6049-.2383,1.212-.3497,1.8201-.0405,.2205-.0817,.4408-.1207,.6619-.0903,.5143-.1752,1.03-.2569,1.5466-.0503,.3167-.0994,.6337-.1464,.9515-.0673,.456-.1317,.9125-.1923,1.3701-.0511,.3842-.0988,.7695-.1451,1.1552-.0493,.411-.0977,.8221-.1415,1.2343-.0464,.436-.0875,.8735-.1279,1.3112-.0346,.3761-.0704,.7518-.1005,1.1288-.0388,.4842-.07,.9705-.1013,1.4567-.0217,.338-.0464,.6753-.0645,1.0139-.0296,.5546-.0497,1.1116-.0696,1.6688-.0098,.2758-.0241,.5509-.0315,.8271-.0223,.8348-.0349,1.672-.0349,2.5121,0,1.529,.0389,3.0512,.1113,4.5667,.0015,.0295,.0019,.0593,.0034,.0889,1.1267,23.1349,10.6423,44.587,27.1283,61.0488l31.8962,31.9001c7.2656,7.2676,15.5898,13.2461,24.749,17.7773-4.1718,6.5314-8.8436,12.7443-13.9614,18.5771-.0529,.0601-.106,.12-.1589,.18-.8955,1.0175-1.808,2.0203-2.7304,3.0141-.1835,.1973-.3657,.3958-.5504,.5923-.8184,.8724-1.6506,1.7321-2.4894,2.5854-.2361,.2399-.4678,.483-.7056,.7216-1.0411,1.0453-2.0948,2.0786-3.1661,3.0941-.0706,.0667-.11,.1547-.1326,.2476-.0049,.0199-.01,.0367-.0124,.057-.0022,.0178-.011,.0339-.0112,.0519-.0011,.0766,.0197,.1494,.0518,.2175,.0024,.0051-.0002,.0109,.0024,.0159,.0067,.0131,.021,.0186,.0287,.0309,.0203,.0328,.036,.0682,.0636,.096l31.9111,31.9189c.0947,.0947,.2222,.1465,.3535,.1465,.0303,0,.0605-.0029,.0908-.0088,32.3125-5.9824,61.3423-21.8848,83.9517-45.9863,22.7065-24.2061,36.7251-54.3564,40.54-87.1904,3.5171-28.9336-6.1318-57.1934-26.48-77.5415ZM64.172,234.4805c.1464-.1474,.2965-.2911,.4423-.4391,13.8879-14.0825,24.7657-30.4198,32.3667-48.6385,.0659-.1582,.0464-.3398-.0522-.4795-.0942-.1338-.2471-.2129-.4092-.2129l-.0249,.001c-24.3853,1.207-48.771-7.9648-66.8857-25.1963-.5615-.5341-1.1147-1.0744-1.6608-1.6198l-.0121-.0121C11.6573,141.6019,2.2335,120.3097,1.1135,97.5058c-.0015-.0298-.002-.0599-.0034-.0897-.0722-1.4993-.1101-3.0048-.1101-4.5162,0-.8293,.0125-1.6569,.0345-2.4828,.0074-.2793,.0219-.5568,.0318-.8354,.0195-.5452,.0392-1.0903,.0682-1.6339,.0179-.3367,.0425-.6717,.064-1.0074,.0308-.4805,.0619-.9611,.1002-1.4402,.0297-.3714,.0649-.7413,.099-1.1115,.04-.4343,.0809-.8684,.1269-1.3015,.0434-.4072,.091-.8131,.1398-1.2188,.0458-.3826,.0934-.7648,.144-1.1464,.0601-.4516,.123-.9022,.1897-1.3517,.0464-.3146,.0953-.6285,.145-.9422,.0813-.512,.1647-1.0232,.2545-1.5323,.0382-.2176,.0791-.4344,.1189-.6516,.1105-.6016,.2234-1.2023,.3457-1.7997,.0107-.0523,.0223-.1044,.0331-.1567C8.3947,47.6531,25.4565,25.1982,48.5778,12.4148c.8364-.46,1.6743-.9172,2.524-1.3506,.1479-.0759,.2985-.1473,.4469-.2224C61.9474,5.6089,73.3002,2.3625,84.9577,1.3462l.0662-.0059c1.241-.1073,2.4857-.1863,3.7327-.2429,.1554-.0069,.3113-.0117,.4669-.0178,1.22-.0491,2.442-.0796,3.6661-.0796,1.3904,0,2.7745,.0401,4.1547,.1011,.2118,.0096,.4243,.0145,.6358,.0256,1.1752,.0599,2.3441,.1534,3.5107,.2572,.4717,.0428,.944,.0826,1.4144,.1327,.9273,.0968,1.8495,.2156,2.7706,.3399,15.7985,2.1694,30.7501,8.4191,43.3732,18.0762,.4307,.3311,.8596,.6647,1.2851,1.0039,.5934,.4709,1.1816,.949,1.764,1.4352,.7703,.6456,1.5344,1.3007,2.2863,1.9736,.2112,.1884,.4253,.3729,.6349,.5634,.9731,.8868,1.9284,1.7993,2.8689,2.7319,1.409,1.3964,2.7819,2.8361,4.1056,4.3305,17.686,19.9668,25.627,45.7637,22.3594,72.6411-3.79,32.6206-17.7163,62.5737-40.2744,86.6206-22.0747,23.5322-50.3076,39.1953-81.7437,45.3691,.7224-.6995,1.4299-1.4103,2.1368-2.1215Zm-4.3258-44.6832l-22.2752-22.2779c16.8463,12.5253,37.486,19.0695,58.1815,18.2261-3.2029,7.5682-6.9847,14.8024-11.3111,21.6848-9.1032-4.4885-17.3787-10.4152-24.5952-17.633Zm156.124-53.2725c-3.79,32.6221-17.7173,62.5762-40.2764,86.624-22.4019,23.8818-51.1479,39.6592-83.1455,45.6396l-31.0614-31.0687c31.938-6.1123,60.6298-21.9329,83.0214-45.8024,22.7056-24.2051,36.7236-54.3545,40.5381-87.187,2.9714-24.4419-3.2358-48.0004-17.5338-67.1808l22.2711,22.2663c20.1221,20.1221,29.667,48.0801,26.1865,76.709Z" style="fill: rgb(28, 29, 34);"/></g><g id="__id129_sgggrde97l"><path d="M329.033,185.2101c-3.33,7.99-7.32,15.64-11.91,22.87-9.29-4.53-17.8-10.61-25.12-17.93l-31.91-31.91c-.39-.39-.77-.78-1.14-1.17,17.91,18.55,43.27,29.48,70.08,28.14Z" style="fill: rgb(249, 188, 96);"/></g><g id="__id130_sgggrde97l"><path d="M448.983,136.5801c-1.81,15.55-5.94,30.38-12.05,44.15-20.15,45.47-61.79,79.3-112.04,88.6l-31.91-31.92c1.45-1.3799,2.88-2.78,4.27-4.22,.46-.46,.91-.93,1.35-1.4,1.38-1.44,2.72-2.9,4.03-4.4,.36-.4,.71-.8,1.05-1.2,1.93-2.23,3.79-4.52,5.57-6.86,.38-.48,.74-.96,1.1-1.44,.48-.63,.95-1.27,1.41-1.92,.5-.68,.99-1.37,1.48-2.06,.38-.54,.76-1.09,1.13-1.65,.94-1.38,1.86-2.77,2.75-4.18,4.59-7.23,8.58-14.88,11.91-22.87-26.81,1.34-52.17-9.59-70.08-28.14-.4399-.46-.8799-.92-1.3199-1.39l-.27-.3c-.38-.41-.75-.82-1.12-1.24-.33-.37-.66-.75-.98-1.13-.34-.38-.67-.77-.9901-1.16-.89-1.08-1.7599-2.17-2.61-3.29-.42-.55-.83-1.11-1.23-1.67-1.01-1.39-1.98-2.82-2.9-4.27-.36-.55-.71-1.11-1.05-1.67-.02-.02-.03-.04-.04-.06-.38-.61-.7401-1.23-1.1-1.86-.46-.78-.91-1.58-1.34-2.39-.27-.5-.54-1.01-.8-1.52-1.3199-2.56-2.53-5.19-3.61-7.9-.2-.49-.39-.99-.58-1.49-.95-2.48-1.79-5.02-2.52-7.61-.38-1.33-.73-2.67-1.04-4.02-.36-1.5099-.67-3.03-.95-4.56-.14-.77-.27-1.55-.39-2.32-.01-.04-.01-.08-.02-.12-.23-1.5099-.43-3.04-.59-4.58-.32-3.15-.49-6.36-.49-9.62,0-.87,.0099-1.7401,.04-2.61,.02-.79,.05-1.57,.09-2.34,.03-.54,.06-1.08,.11-1.62,.01-.26,.03-.51,.05-.77,.04-.56,.09-1.13,.15-1.69,.03-.31,.0601-.63,.1-.95,.03-.35,.07-.7,.12-1.06,.08-.74,.18-1.49,.29-2.23v-.01c.12-.87,.26-1.73,.41-2.59,.12-.69,.25-1.38,.39-2.0601,.18-.99,.39-1.96,.62-2.93,.14-.61,.28-1.22,.44-1.82l.12-.48c.09-.35,.18-.7,.28-1.05,.14-.54,.3-1.08,.45-1.62,.04-.14,.08-.27,.12-.4,.21-.71,.43-1.42,.66-2.13,.01-.05,.03-.1,.05-.15,.21-.66,.43-1.31,.66-1.96,.08-.26,.18-.53,.28-.79,.22-.61,.44-1.22,.68-1.82,.02-.07,.05-.15,.08-.22,.28-.73,.57-1.46,.88-2.18,.02-.06,.04-.12,.07-.18,.32-.77,.65-1.53,.99-2.29,.77-1.71,1.6-3.4,2.48-5.05,.29-.57,.59-1.12,.9-1.6801,.03-.06,.06-.11,.09-.17,.36-.64,.72-1.27,1.09-1.9,.0601-.1,.1201-.21,.1801-.31,.83-1.4,1.7-2.78,2.6-4.13,.47-.7,.94-1.39,1.43-2.08,.97-1.37,1.97-2.71,3.01-4.02,.46-.59,.93-1.17,1.41-1.74,.1801-.22,.36-.44,.56-.66,.38-.46,.77-.9,1.17-1.35,.04-.07,.1-.13,.17-.19,.51-.59,1.05-1.18,1.59-1.76,0-.0099,.02-.02,.02-.02,.51-.55,1.04-1.1,1.57-1.64,.07-.08,.15-.17,.24-.24,.51-.53,1.03-1.04,1.55-1.54,2.78-2.7,5.72-5.21,8.8101-7.52,.42-.32,.86-.64,1.29-.95,1.17-.85,2.36-1.67,3.57-2.46,.45-.3,.9-.59,1.36-.87,.13-.09,.27-.18,.4-.25,.43-.28,.87-.54,1.31-.8,.49-.31,.99-.6,1.48-.87,.53-.31,1.06-.61,1.59-.89,.7-.4,1.4-.77,2.11-1.13,.24-.13,.48-.25,.72-.37,.5-.25,1-.5,1.51-.74,.67-.33,1.35-.65,2.03-.95,.68-.31,1.37-.61,2.06-.9,.5099-.22,1.03-.44,1.55-.64,1.57-.64,3.17-1.23,4.78-1.77,.71-.24,1.43-.48,2.16-.7,.69-.22,1.39-.43,2.1-.6299,.11-.03,.21-.0601,.32-.08,.49-.15,.99-.28,1.49-.41,.28-.08,.56-.16,.85-.22,.54-.14,1.08-.27,1.62-.39,.13-.04,.27-.07,.41-.1,.68-.16,1.37-.31,2.06-.45,.72-.15,1.44-.29,2.16-.42,.07-.01,.14-.02,.22-.04,1.32-.23,2.64-.44,3.98-.61h.02c.41-.06,.81-.11,1.21-.15,.5-.0699,1-.12,1.49-.17,.08-.01,.15-.02,.22-.02,.65-.0699,1.3-.1299,1.95-.18,.15-.0099,.31-.02,.46-.03,.61-.05,1.22-.09,1.83-.12l.54-.03c.67-.03,1.35-.06,2.03-.07,.05-.0099,.1-.0099,.15-.0099,.78-.02,1.57-.03,2.36-.03,2.46,0,4.89,.1,7.3,.29,1.32,.1,2.65,.23,3.96,.4,4.37,.52,8.65,1.36,12.81,2.48,.4,.11,.8,.22,1.19,.33,3.64,1.03,7.19,2.28,10.63,3.73,.7,.3,1.4,.6,2.1,.92,1.14,.5099,2.26,1.05,3.3701,1.61,.89,.44,1.77,.9,2.65,1.38,1.97,1.06,3.89,2.2,5.76,3.4,4.38,2.8,8.5,5.96,12.34,9.45,1.09,.99,2.16,2.01,3.21,3.06h.01l31.91,31.9,.01,.01c19.2,19.2,30.01,46.86,26.33,77.12Z" style="fill: rgb(249, 188, 96);"/></g><g id="__id131_sgggrde97l"><path d="M448.983,136.5801c-1.81,15.55-5.94,30.38-12.05,44.15l-107.55-107.55L349.473,3.6701c.4,.11,.8,.22,1.19,.33,3.64,1.03,7.19,2.28,10.63,3.73,.7,.3,1.4,.6,2.1,.92,1.14,.5099,2.26,1.05,3.3701,1.61,.89,.44,1.77,.9,2.65,1.38,1.97,1.06,3.89,2.2,5.76,3.4,4.38,2.8,8.5,5.96,12.34,9.45,1.09,.99,2.16,2.01,3.21,3.06h.01l31.91,31.9,.01,.01c19.2,19.2,30.01,46.86,26.33,77.12Z" style="fill: rgb(202, 179, 225);"/></g><g id="__id132_sgggrde97l"><path d="M417.063,104.6701c-7.77,66.88-58.62,120.62-124.08,132.74,1.45-1.3799,2.88-2.78,4.27-4.22,.46-.46,.91-.93,1.35-1.4,1.38-1.44,2.72-2.9,4.03-4.4,.35-.4,.7-.8,1.05-1.2,1.93-2.23,3.79-4.52,5.57-6.86,.38-.48,.74-.96,1.1-1.44,.48-.64,.95-1.28,1.41-1.92,.5-.68,.99-1.37,1.48-2.06,.38-.54,.76-1.09,1.13-1.65,.94-1.38,1.86-2.77,2.75-4.18,4.59-7.23,8.58-14.88,11.91-22.87-26.81,1.34-52.17-9.59-70.08-28.14-.4399-.46-.8799-.92-1.3199-1.39l-.27-.3c-.38-.41-.75-.82-1.12-1.24-.33-.37-.66-.75-.98-1.13-.34-.38-.67-.77-.9901-1.16-.89-1.08-1.7599-2.17-2.61-3.29-.42-.55-.83-1.11-1.23-1.67-1.01-1.39-1.98-2.82-2.9-4.27-.36-.55-.71-1.11-1.05-1.67-.02-.02-.03-.04-.04-.06-.38-.61-.7401-1.23-1.1-1.86-.46-.78-.91-1.58-1.34-2.39-.27-.5-.54-1.01-.8-1.52-1.3199-2.56-2.53-5.19-3.61-7.9-.2-.49-.39-.99-.58-1.49-.95-2.48-1.79-5.02-2.52-7.61-.38-1.33-.73-2.67-1.04-4.02-.36-1.5099-.67-3.03-.95-4.56-.14-.77-.27-1.55-.39-2.32-.01-.04-.01-.08-.02-.12-.23-1.5099-.43-3.04-.59-4.58-.32-3.15-.49-6.36-.49-9.62,0-.87,.0099-1.7401,.04-2.61,.02-.79,.05-1.57,.09-2.34,.03-.54,.06-1.08,.11-1.62,.01-.26,.03-.51,.05-.77,.04-.56,.09-1.13,.15-1.69,.03-.31,.0601-.63,.1-.95,.03-.35,.07-.7,.12-1.06,.08-.74,.18-1.49,.29-2.23v-.01c.12-.87,.26-1.73,.41-2.59,.12-.69,.25-1.38,.39-2.0601,.18-.99,.39-1.96,.62-2.93,.14-.61,.28-1.22,.44-1.82l.12-.48c.09-.35,.18-.7,.28-1.05,.14-.54,.3-1.08,.45-1.62,.04-.14,.08-.27,.12-.4,.21-.71,.43-1.42,.66-2.13,.01-.05,.03-.1,.05-.15,.21-.66,.43-1.31,.66-1.96,.08-.26,.18-.53,.28-.79,.22-.61,.44-1.22,.68-1.82,.02-.07,.05-.15,.08-.22,.28-.73,.57-1.46,.88-2.18,.02-.06,.04-.12,.07-.18,.32-.77,.65-1.53,.99-2.29,.77-1.71,1.6-3.4,2.48-5.05,.29-.57,.59-1.12,.9-1.6801,.03-.06,.06-.11,.09-.17,.36-.64,.72-1.27,1.09-1.9,.0601-.1,.1201-.21,.1801-.31,.83-1.4,1.69-2.78,2.6-4.13,.47-.7,.94-1.39,1.43-2.08,.96-1.37,1.97-2.71,3.01-4.02,.46-.59,.93-1.17,1.41-1.74,.1801-.22,.36-.44,.56-.66,.38-.46,.77-.9,1.17-1.35,.04-.07,.1-.13,.17-.19,.51-.59,1.05-1.18,1.59-1.76,0-.0099,.02-.02,.02-.02,.51-.55,1.04-1.1,1.57-1.64,.07-.08,.15-.17,.24-.24,.51-.53,1.03-1.04,1.55-1.54,2.78-2.7,5.72-5.21,8.8101-7.52,.42-.32,.86-.64,1.29-.95,1.17-.85,2.36-1.67,3.57-2.46,.45-.3,.9-.59,1.36-.87,.13-.09,.27-.18,.4-.25,.43-.28,.87-.54,1.31-.8,.49-.31,.99-.6,1.48-.87,.53-.31,1.06-.61,1.59-.89,.7-.4,1.4-.77,2.11-1.13,.24-.13,.48-.25,.72-.37,.5-.25,1-.5,1.51-.74,.67-.33,1.35-.65,2.03-.95,.68-.31,1.37-.61,2.06-.9,.5099-.22,1.03-.44,1.55-.64,1.57-.64,3.17-1.23,4.78-1.77,.71-.24,1.43-.48,2.16-.7,.69-.22,1.39-.43,2.1-.6299,.11-.03,.21-.0601,.32-.08,.49-.15,.99-.28,1.49-.41,.28-.08,.56-.16,.85-.22,.54-.14,1.08-.27,1.62-.39,.13-.04,.27-.07,.41-.1,.68-.16,1.37-.31,2.06-.45,.72-.15,1.44-.29,2.16-.42,.07-.01,.14-.02,.22-.04,1.32-.23,2.64-.44,3.98-.61h.02c.41-.06,.81-.11,1.21-.15,.5-.0699,1-.12,1.49-.17,.08-.01,.15-.02,.22-.02,.65-.0699,1.3-.1299,1.95-.18,.15-.0099,.31-.02,.46-.03,.61-.05,1.22-.09,1.83-.12l.54-.03c.67-.03,1.35-.06,2.03-.07,.05-.0099,.1-.0099,.15-.0099,.78-.02,1.57-.03,2.36-.03,2.46,0,4.89,.1,7.3,.29,1.33,.1,2.65,.23,3.96,.4,4.79,.57,9.47,1.52,14,2.81,3.64,1.03,7.19,2.28,10.63,3.73,.7,.3,1.4,.6,2.1,.92,1.13,.5099,2.26,1.04,3.3701,1.61,.89,.44,1.77,.9,2.65,1.38,1.97,1.06,3.89,2.2,5.76,3.4,4.38,2.8,8.5,5.96,12.34,9.45,1.09,.99,2.17,2.01,3.21,3.06h.01c19.2,19.2,30.01,46.86,26.33,77.12Z" style="fill: rgb(202, 179, 225);"/></g><g id="__id133_sgggrde97l"><path d="M422.9967,59.1016l-31.9155-31.9087c-.0963-.0963-.1981-.1849-.2947-.2807-.9406-.9316-1.8949-1.8464-2.871-2.7339-.231-.2106-.4673-.4131-.7001-.6212-.7305-.6509-1.4703-1.2895-2.2194-1.9156-.6293-.5281-1.2669-1.0424-1.908-1.5523-.3887-.3078-.7784-.614-1.1716-.9152-12.8205-9.8686-27.8637-16.145-43.8945-18.3085-.9299-.1276-1.8622-.2437-2.7975-.3432-.4754-.0496-.9521-.0917-1.4291-.1341-1.1802-.1072-2.3632-.1981-3.5505-.2601-.2131-.0109-.4271-.0163-.6404-.0257-1.3967-.0633-2.7968-.1022-4.2013-.1022-1.243,0-2.4785,.0319-3.7098,.0806-.1553,.0062-.3106,.0107-.4658,.0178-1.2653,.0563-2.5237,.139-3.7755,.2457l-.0674,.006c-12.0639,1.0366-23.4761,4.3866-33.7894,9.6074-.1423,.0717-.2857,.1404-.4276,.2128-.8655,.4438-1.7203,.9052-2.5699,1.3751-4.901,2.696-9.5762,5.8279-13.9411,9.3966-16.7453,13.6919-27.9722,32.4398-32.2285,53.1488-.0104,.0504-.0215,.1005-.0319,.1509-.1233,.6049-.2383,1.212-.3497,1.8201-.0405,.2205-.0817,.4408-.1207,.6619-.0903,.5143-.1752,1.03-.2569,1.5466-.0503,.3167-.0994,.6337-.1464,.9515-.0673,.456-.1317,.9125-.1923,1.3701-.0511,.3842-.0988,.7695-.1451,1.1552-.0493,.411-.0977,.8221-.1415,1.2343-.0464,.436-.0875,.8735-.1279,1.3112-.0346,.3761-.0704,.7518-.1005,1.1288-.0388,.4842-.07,.9705-.1013,1.4567-.0217,.338-.0464,.6753-.0645,1.0139-.0296,.5546-.0497,1.1116-.0696,1.6688-.0098,.2758-.0241,.5509-.0315,.8271-.0223,.8348-.0349,1.672-.0349,2.5121,0,1.529,.0389,3.0512,.1113,4.5667,.0015,.0295,.0019,.0593,.0034,.0889,1.1267,23.1349,10.6423,44.587,27.1283,61.0488l31.8962,31.9001c7.2656,7.2676,15.5898,13.2461,24.749,17.7773-4.1718,6.5314-8.8436,12.7443-13.9614,18.5771-.0529,.0601-.106,.12-.1589,.18-.8955,1.0175-1.808,2.0203-2.7304,3.0141-.1835,.1973-.3657,.3958-.5504,.5923-.8184,.8724-1.6506,1.7321-2.4894,2.5854-.2361,.2399-.4678,.483-.7056,.7216-1.0411,1.0453-2.0948,2.0786-3.1661,3.0941-.0706,.0667-.11,.1547-.1326,.2476-.0049,.0199-.01,.0367-.0124,.057-.0022,.0178-.011,.0339-.0112,.0519-.0011,.0766,.0197,.1494,.0518,.2175,.0024,.0051-.0002,.0109,.0024,.0159,.0067,.0131,.021,.0186,.0287,.0309,.0203,.0328,.036,.0682,.0636,.096l31.9111,31.9189c.0947,.0947,.2222,.1465,.3535,.1465,.0303,0,.0605-.0029,.0908-.0088,32.3125-5.9824,61.3423-21.8848,83.9517-45.9863,22.7065-24.2061,36.7251-54.3564,40.54-87.1904,3.5171-28.9336-6.1318-57.1934-26.48-77.5415Zm-126.3114,175.379c.1464-.1474,.2965-.2911,.4423-.4391,13.8879-14.0825,24.7657-30.4198,32.3667-48.6385,.0659-.1582,.0464-.3398-.0522-.4795-.0942-.1338-.2471-.2129-.4092-.2129l-.0249,.001c-24.3853,1.207-48.771-7.9648-66.8857-25.1963-.5615-.5341-1.1147-1.0744-1.6608-1.6198l-.0121-.0121c-16.2787-16.2814-25.7025-37.5736-26.8226-60.3775-.0015-.0298-.002-.0599-.0034-.0897-.0722-1.4993-.1101-3.0048-.1101-4.5162,0-.8293,.0125-1.6569,.0345-2.4828,.0074-.2793,.0219-.5568,.0318-.8354,.0195-.5452,.0392-1.0903,.0682-1.6339,.0179-.3367,.0425-.6717,.064-1.0074,.0308-.4805,.0619-.9611,.1002-1.4402,.0297-.3714,.0649-.7413,.099-1.1115,.04-.4343,.0809-.8684,.1269-1.3015,.0434-.4072,.091-.8131,.1398-1.2188,.0458-.3826,.0934-.7648,.144-1.1464,.0601-.4516,.123-.9022,.1897-1.3517,.0464-.3146,.0953-.6285,.145-.9422,.0813-.512,.1647-1.0232,.2545-1.5323,.0382-.2176,.0791-.4344,.1189-.6516,.1105-.6016,.2234-1.2023,.3457-1.7997,.0107-.0523,.0223-.1044,.0331-.1567,5.4996-26.6348,22.5613-49.0897,45.6826-61.8731,.8364-.46,1.6743-.9172,2.524-1.3506,.1479-.0759,.2985-.1473,.4469-.2224,10.3987-5.2328,21.7515-8.4793,33.409-9.4956l.0662-.0059c1.241-.1073,2.4857-.1863,3.7327-.2429,.1554-.0069,.3113-.0117,.4669-.0178,1.22-.0491,2.442-.0796,3.6661-.0796,1.3904,0,2.7745,.0401,4.1547,.1011,.2118,.0096,.4243,.0145,.6358,.0256,1.1752,.0599,2.3441,.1534,3.5107,.2572,.4717,.0428,.944,.0826,1.4144,.1327,.9273,.0968,1.8495,.2156,2.7706,.3399,15.7985,2.1694,30.7501,8.4191,43.3732,18.0762,.4307,.3311,.8596,.6647,1.2851,1.0039,.5934,.4709,1.1816,.949,1.764,1.4352,.7703,.6456,1.5344,1.3007,2.2863,1.9736,.2112,.1884,.4253,.3729,.6349,.5634,.9731,.8868,1.9284,1.7993,2.8689,2.7319,1.409,1.3964,2.7819,2.8361,4.1056,4.3305,17.686,19.9668,25.627,45.7637,22.3594,72.6411-3.79,32.6206-17.7163,62.5737-40.2744,86.6206-22.0747,23.5322-50.3076,39.1953-81.7437,45.3691,.7224-.6995,1.4299-1.4103,2.1368-2.1215Zm-4.3258-44.6832l-22.2752-22.2779c16.8463,12.5253,37.486,19.0695,58.1815,18.2261-3.2029,7.5682-6.9847,14.8024-11.3111,21.6848-9.1032-4.4885-17.3787-10.4152-24.5952-17.633Zm156.124-53.2725c-3.79,32.6221-17.7173,62.5762-40.2764,86.624-22.4019,23.8818-51.1479,39.6592-83.1455,45.6396l-31.0614-31.0687c31.938-6.1123,60.6298-21.9329,83.0214-45.8024,22.7056-24.2051,36.7236-54.3545,40.5381-87.187,2.9714-24.4419-3.2358-48.0004-17.5338-67.1808l22.2711,22.2663c20.1221,20.1221,29.667,48.0801,26.1865,76.709Z" style="fill: rgb(28, 29, 34);"/></g></svg>