<svg xmlns="http://www.w3.org/2000/svg" xmlns:xlink="http://www.w3.org/1999/xlink" preserveAspectRatio="xMidYMid meet" version="1.0" viewBox="79.1 71.5 367.3 367.3" zoomAndPan="magnify" style="fill: rgb(26, 58, 45);" original_string_length="3230"><g id="__id210_sg5ez17cq"><circle cx="87.76" cy="80.14" r="8.64" style="fill: inherit;"/></g><g id="__id211_sg5ez17cq"><circle cx="137.76" cy="80.14" r="8.64" style="fill: inherit;"/></g><g id="__id212_sg5ez17cq"><circle cx="187.76" cy="80.14" r="8.64" style="fill: inherit;"/></g><g id="__id213_sg5ez17cq"><circle cx="237.76" cy="80.14" r="8.64" style="fill: inherit;"/></g><g id="__id214_sg5ez17cq"><circle cx="287.76" cy="80.14" r="8.64" style="fill: inherit;"/></g><g id="__id215_sg5ez17cq"><circle cx="87.76" cy="130.14" r="8.64" style="fill: inherit;"/></g><g id="__id216_sg5ez17cq"><circle cx="137.76" cy="130.14" r="8.64" style="fill: inherit;"/></g><g id="__id217_sg5ez17cq"><circle cx="187.76" cy="130.14" r="8.64" style="fill: inherit;"/></g><g id="__id218_sg5ez17cq"><circle cx="237.76" cy="130.14" r="8.64" style="fill: inherit;"/></g><g id="__id219_sg5ez17cq"><circle cx="287.76" cy="130.14" r="8.64" style="fill: inherit;"/></g><g id="__id220_sg5ez17cq"><circle cx="87.76" cy="180.14" r="8.64" style="fill: inherit;"/></g><g id="__id221_sg5ez17cq"><circle cx="137.76" cy="180.14" r="8.64" style="fill: inherit;"/></g><g id="__id222_sg5ez17cq"><circle cx="187.76" cy="180.14" r="8.64" style="fill: inherit;"/></g><g id="__id223_sg5ez17cq"><circle cx="237.76" cy="180.14" r="8.64" style="fill: inherit;"/></g><g id="__id224_sg5ez17cq"><circle cx="287.76" cy="180.14" r="8.64" style="fill: inherit;"/></g><g id="__id225_sg5ez17cq"><circle cx="87.76" cy="230.14" r="8.64" style="fill: inherit;"/></g><g id="__id226_sg5ez17cq"><circle cx="137.76" cy="230.14" r="8.64" style="fill: inherit;"/></g><g id="__id227_sg5ez17cq"><circle cx="187.76" cy="230.14" r="8.64" style="fill: inherit;"/></g><g id="__id228_sg5ez17cq"><circle cx="237.76" cy="230.14" r="8.64" style="fill: inherit;"/></g><g id="__id229_sg5ez17cq"><circle cx="287.76" cy="230.14" r="8.64" style="fill: inherit;"/></g><g id="__id230_sg5ez17cq"><circle cx="337.76" cy="230.14" r="8.64" style="fill: inherit;"/></g><g id="__id231_sg5ez17cq"><circle cx="387.76" cy="230.14" r="8.64" style="fill: inherit;"/></g><g id="__id232_sg5ez17cq"><circle cx="437.76" cy="230.14" r="8.64" style="fill: inherit;"/></g><g id="__id233_sg5ez17cq"><circle cx="87.76" cy="280.14" r="8.64" style="fill: inherit;"/></g><g id="__id234_sg5ez17cq"><circle cx="137.76" cy="280.14" r="8.64" style="fill: inherit;"/></g><g id="__id235_sg5ez17cq"><circle cx="187.76" cy="280.14" r="8.64" style="fill: inherit;"/></g><g id="__id236_sg5ez17cq"><circle cx="237.76" cy="280.14" r="8.64" style="fill: inherit;"/></g><g id="__id237_sg5ez17cq"><circle cx="287.76" cy="280.14" r="8.64" style="fill: inherit;"/></g><g id="__id238_sg5ez17cq"><circle cx="337.76" cy="280.14" r="8.64" style="fill: inherit;"/></g><g id="__id239_sg5ez17cq"><circle cx="387.76" cy="280.14" r="8.64" style="fill: inherit;"/></g><g id="__id240_sg5ez17cq"><circle cx="437.76" cy="280.14" r="8.64" style="fill: inherit;"/></g><g id="__id241_sg5ez17cq"><circle cx="237.76" cy="330.14" r="8.64" style="fill: inherit;"/></g><g id="__id242_sg5ez17cq"><circle cx="287.76" cy="330.14" r="8.64" style="fill: inherit;"/></g><g id="__id243_sg5ez17cq"><circle cx="337.76" cy="330.14" r="8.64" style="fill: inherit;"/></g><g id="__id244_sg5ez17cq"><circle cx="387.76" cy="330.14" r="8.64" style="fill: inherit;"/></g><g id="__id245_sg5ez17cq"><circle cx="437.76" cy="330.14" r="8.64" style="fill: inherit;"/></g><g id="__id246_sg5ez17cq"><circle cx="237.76" cy="380.14" r="8.64" style="fill: inherit;"/></g><g id="__id247_sg5ez17cq"><circle cx="287.76" cy="380.14" r="8.64" style="fill: inherit;"/></g><g id="__id248_sg5ez17cq"><circle cx="337.76" cy="380.14" r="8.64" style="fill: inherit;"/></g><g id="__id249_sg5ez17cq"><circle cx="387.76" cy="380.14" r="8.64" style="fill: inherit;"/></g><g id="__id250_sg5ez17cq"><circle cx="437.76" cy="380.14" r="8.64" style="fill: inherit;"/></g><g id="__id251_sg5ez17cq"><circle cx="237.76" cy="430.14" r="8.64" style="fill: inherit;"/></g><g id="__id252_sg5ez17cq"><circle cx="287.76" cy="430.14" r="8.64" style="fill: inherit;"/></g><g id="__id253_sg5ez17cq"><circle cx="337.76" cy="430.14" r="8.64" style="fill: inherit;"/></g><g id="__id254_sg5ez17cq"><circle cx="387.76" cy="430.14" r="8.64" style="fill: inherit;"/></g><g id="__id255_sg5ez17cq"><circle cx="437.76" cy="430.14" r="8.64" style="fill: inherit;"/></g></svg>