<svg xmlns="http://www.w3.org/2000/svg" version="1.1" viewBox="0 0 479.13 121.56" style="fill: rgb(0, 0, 0);" original_string_length="2396">
 <g id="__id237_srohirdywa">
  <g id="__id238_srohirdywa"><path d="m56.172 9.2188c31.023 0 56.168 25.148 56.168 56.168 0 31.023-25.145 56.173-56.168 56.173-31.024 0-56.172-25.15-56.172-56.173 0-31.02 25.148-56.168 56.172-56.168" style="fill: rgb(194, 181, 155);"/></g>
  <g id="__id239_srohirdywa"><path d="m231.1 9.2188c31.02 0 56.17 25.148 56.17 56.168 0 31.023-25.15 56.173-56.17 56.173s-56.17-25.15-56.17-56.173c0-31.02 25.15-56.168 56.17-56.168" style="fill: rgb(194, 181, 155);"/></g>
  <g id="__id240_srohirdywa"><path d="m405.41 9.2188c31.02 0 56.17 25.148 56.17 56.168 0 31.023-25.15 56.173-56.17 56.173s-56.17-25.15-56.17-56.173c0-31.02 25.15-56.168 56.17-56.168" style="fill: rgb(194, 181, 155);"/></g>
  <g id="__id241_srohirdywa"><path d="m122.39 59.867c-0.28 23.571-15.81 44.013-38.48 50.543-22.769 6.56-47.168-4.09-59.199-24.086-12.238-20.344-8.145-46.801 8.195-63.527 16.578-16.965 43.192-19.789 63.528-8.195 16.156 9.21 25.736 26.878 25.956 45.265 0.06 4.832 7.57 4.84 7.5 0-0.27-22.234-12.38-42.445-31.976-53.019-19.695-10.625-44.406-8.6058-62.582 4.14-18.031 12.645-27.676 35.039-24.719 56.817 2.985 21.996 17.848 40.075 38.348 48.175 18.281 7.23 39.73 3.93 55.659-7.23 15.89-11.152 25.04-29.613 25.27-48.883 0.06-4.84-7.44-4.832-7.5 0" style="fill: rgb(41, 37, 37);"/></g>
  <g id="__id242_srohirdywa"><path d="m297.32 59.867c-0.28 23.571-15.81 44.013-38.48 50.543-22.77 6.56-47.17-4.09-59.2-24.086-12.24-20.344-8.14-46.801 8.2-63.527 16.57-16.965 43.19-19.789 63.52-8.195 16.16 9.21 25.74 26.878 25.96 45.265 0.06 4.832 7.56 4.84 7.5 0-0.27-22.234-12.38-42.445-31.98-53.019-19.69-10.625-44.4-8.6058-62.58 4.14-18.03 12.645-27.67 35.039-24.72 56.817 2.98 21.996 17.85 40.075 38.35 48.175 18.28 7.22 39.73 3.93 55.66-7.24 15.89-11.142 25.04-29.603 25.27-48.873 0.06-4.84-7.44-4.832-7.5 0" style="fill: rgb(41, 37, 37);"/></g>
  <g id="__id243_srohirdywa"><path d="m471.63 59.867c-0.29 23.571-15.81 44.013-38.48 50.543-22.77 6.56-47.17-4.09-59.2-24.086-12.24-20.344-8.15-46.801 8.2-63.527 16.57-16.965 43.19-19.789 63.52-8.195 16.15 9.21 25.74 26.878 25.96 45.265 0.07 4.832 7.57 4.84 7.5 0-0.27-22.234-12.38-42.445-31.98-53.019-19.69-10.625-44.4-8.6097-62.58 4.14-18.03 12.645-27.67 35.039-24.72 56.817 2.99 21.996 17.85 40.075 38.35 48.175 18.28 7.22 39.73 3.93 55.66-7.24 15.89-11.142 25.04-29.603 25.27-48.873 0.07-4.84-7.43-4.832-7.5 0" style="fill: rgb(41, 37, 37);"/></g>
 </g>
</svg>