<svg xmlns="http://www.w3.org/2000/svg" xmlns:xlink="http://www.w3.org/1999/xlink" preserveAspectRatio="xMidYMid meet" version="1.0" viewBox="176.9 381.1 1692.5 1237.7" zoomAndPan="magnify" style="fill: rgb(0, 0, 0);" original_string_length="1852"><g id="__id123_shb7cd3ncs"><path d="M1754.7,419.9c-8.4-23.9-29.5-38.8-55-38.8c-19.6,0-37.7,9-48.4,24c-9.9,14-12.1,31.8-6.1,49 c38.3,109,90.7,258.3,42.1,380.2c-32.3,80.9-106.4,147.7-184.1,169.2c-0.6-70.8-14.8-141.3-41.8-205.9 c-39.8-95.2-103.9-177.4-185.6-237.7c-18.2-13.5-82.8-57.4-148.4-57.4c-47.3,0-84,23.9-103.4,67.3c-26,58.1-15.5,141,31.1,246.4 c37.6,85,93.9,159.6,162.9,215.7c50.2,40.8,104.3,69.4,158,83.6c-3.3,13.3-7.2,26.4-11.8,39.3c-44.9,127.8-165.6,259.9-294.1,269.2 c42.3-73,59.6-156.9,49-241.1c-17.9-141.4-140.6-292.7-294.7-292.7c-42.8,0-84.6,11.8-124.2,35.1 c-88.2,51.9-129.8,147.1-105.9,242.4c27.8,110.9,128.8,203.7,202.4,263.9c19.9,16.2,39.9,30.8,59.8,43.4 c-37.4,19.2-78.4,29.1-120.8,29.1c0,0,0,0,0,0c-2.3,0-4.6,0-6.9-0.1c-181.7-4.6-309.4-159-422.2-295.2c-9.2-11.1-18.2-22-27.2-32.7 c-10.7-12.8-25.2-19.9-40.7-19.9c-21.7,0-42,13.7-51.9,34.8c-9.9,21.2-6.8,44.5,8.1,62.4l13.3,16c130,155.7,291.7,349.4,525.6,349.4 c6.3,0,12.6-0.1,19-0.4c83.2-3.7,163.5-35,228-88.7c24.9,6,49.9,9.1,74.4,9.1c13,0,26.2-0.9,39.1-2.6 c128.7-17.1,223.3-105.7,268.3-156.9c64.1-73,108.2-161.1,128.3-255.8c81.8-10.8,163.5-58,231.8-134.5 C1869.4,824.9,1821.2,609.2,1754.7,419.9z M1134,616.5c2.1-0.4,4.4-0.6,6.7-0.6c34.6,0,89.8,42.2,147.6,112.8 c63.3,77.4,98.4,172.7,100.5,271.4c-106.1-34.3-186-136.2-227.1-225.7c-25.1-54.6-44.6-131.4-32.7-154.5 C1130.2,617.8,1131.1,617,1134,616.5z M704.1,1091.1c13.5-53.7,73.2-85.8,123.2-85.8c7.2,0,14.2,0.6,21,1.9 c72.2,13.2,125,78.8,145.3,138c29.2,85,12.3,179.8-43.8,252.3C897,1371,852,1330,817.9,1296.1l-1.5-1.5 C761.2,1239.9,685.6,1164.9,704.1,1091.1z" style="fill: rgb(249, 188, 96);"/></g></svg>