<svg xmlns="http://www.w3.org/2000/svg" xmlns:xlink="http://www.w3.org/1999/xlink" preserveAspectRatio="xMidYMid meet" version="1.0" viewBox="-0.1 0.7 259.3 284.2" zoomAndPan="magnify" style="fill: rgb(0, 0, 0);" original_string_length="10306"><g id="__id250_srohirdywa"><path d="M128.889,284.902c-15.579,0-25.163-15.127-32.882-27.312c-1.39-2.193-2.703-4.265-4-6.179 c-9.69-14.295-20.195-23.157-35.123-29.633l-0.706-0.307c-32.646-14.156-56.232-24.385-56.177-65.194 c0.05-36.903,19.002-62.53,39.476-84.727c4.052-4.393,8.42-9.544,13.045-14.998C73.569,31.736,99.761,0.852,129.431,0.749 c0.027,0,0.056,0,0.083,0c18.331,0,25.861,21.158,31.363,36.614c0.626,1.76,1.225,3.442,1.809,5.005 c1.14,3.049,2.259,6.197,3.341,9.24c5.549,15.607,11.288,31.747,22.939,44.026c6.967,7.343,17.698,12.72,29.058,18.412 c19.895,9.97,40.468,20.278,40.84,42.224c0.413,24.385-23.426,37.753-44.458,49.547c-8.32,4.665-16.178,9.071-22.143,13.871 c-7.65,6.155-14.106,16.516-20.941,27.484c-11.427,18.336-23.242,37.296-41.878,37.724 C129.259,284.9,129.073,284.902,128.889,284.902z M0.502,156.279l0.5,0.001c-0.054,40.152,23.28,50.271,55.575,64.275l0.705,0.306 c15.115,6.557,25.748,15.525,35.553,29.99c1.306,1.927,2.623,4.004,4.017,6.204c7.587,11.976,17.011,26.845,32.044,26.847 c0.175,0,0.349-0.002,0.526-0.006c18.095-0.415,29.766-19.143,41.052-37.253c6.881-11.042,13.381-21.472,21.163-27.734 c6.029-4.852,13.923-9.278,22.28-13.964c20.788-11.657,44.35-24.87,43.947-48.657c-0.361-21.34-20.659-31.511-40.288-41.347 c-11.441-5.733-22.247-11.147-29.335-18.618c-11.797-12.433-17.572-28.674-23.156-44.379c-1.081-3.04-2.198-6.183-3.335-9.225 c-0.586-1.567-1.187-3.254-1.814-5.02c-5.402-15.175-12.796-35.95-30.422-35.95c-0.026,0-0.051,0-0.077,0 C100.225,1.85,74.198,32.54,53.286,57.2c-4.632,5.462-9.007,10.621-13.073,15.029C16.711,97.709,1.049,121.754,1.002,156.28 L0.502,156.279z M131.471,259.632c-0.326,0-0.649-0.007-0.975-0.021c-13.217-0.564-26.807-12.343-39.948-23.733 c-8.328-7.218-16.94-14.683-25.158-18.946c-24.016-12.458-51.235-26.58-52.582-58.572c-1.262-29.973,19.107-55.258,36.993-73.938 c1.347-1.407,2.752-2.888,4.211-4.424c19.332-20.371,48.5-51.158,76.517-50.507c18.71,0.435,30.718,24.293,41.313,45.343 c5.825,11.572,11.326,22.503,17.394,28.765c5.324,5.494,13.817,10.273,22.81,15.333c17.229,9.695,36.757,20.684,36.072,39.425 c-0.896,24.496-21.018,36.898-40.477,48.893c-5.638,3.476-10.963,6.758-15.791,10.309c-5.104,3.755-10.625,9.009-16.471,14.571 C161.813,245.038,146.475,259.632,131.471,259.632z M129.655,30.48c-27.273,0-55.904,30.169-74.917,50.205 c-1.459,1.538-2.865,3.02-4.213,4.427c-33.79,35.289-37.371,57.659-36.717,73.204c1.322,31.415,28.269,45.395,52.044,57.729 c8.323,4.317,16.979,11.821,25.352,19.077c13.012,11.278,26.467,22.94,39.336,23.489c14.868,0.653,30.434-14.156,44.15-27.207 c5.87-5.585,11.414-10.86,16.568-14.651c4.861-3.576,10.204-6.869,15.859-10.355c19.236-11.855,39.126-24.116,40.002-48.078 c0.663-18.132-17.753-28.495-35.563-38.517c-9.057-5.096-17.612-9.91-23.037-15.508c-6.175-6.372-11.709-17.369-17.57-29.011 c-10.468-20.799-22.333-44.373-40.443-44.793C130.224,30.483,129.938,30.48,129.655,30.48z M134.283,243.608 c-0.325,0-0.646-0.005-0.966-0.016c-14.076-0.478-31.8-11.509-47.439-21.242c-4.147-2.581-8.064-5.019-11.81-7.205 c-22.513-13.14-44.666-27.933-46.721-51.415c-1.682-19.215,9.599-41.109,33.53-65.076c15.193-15.216,44.808-40.845,72.445-41.53 c16.39-0.393,29.725,19.125,41.479,36.357c5.305,7.778,10.315,15.124,15.086,19.839c4.842,4.786,11.401,9.029,18.345,13.522 c15.062,9.744,30.636,19.82,30.714,36.841c0.109,23.604-20.769,36.908-39.189,48.646c-2.746,1.75-5.338,3.402-7.865,5.085 C178.078,226.618,152.57,243.608,134.283,243.608z M28.343,163.642c2.014,23.007,23.942,37.632,46.229,50.64 c3.758,2.193,7.681,4.635,11.834,7.22c15.532,9.667,33.136,20.623,46.944,21.091c18.022,0.632,44.02-16.706,57.986-26.009 c2.536-1.688,5.133-3.344,7.882-5.097c18.202-11.599,38.833-24.746,38.727-47.799c-0.076-16.479-15.419-26.406-30.257-36.006 c-6.989-4.521-13.59-8.792-18.505-13.65c-4.839-4.783-9.876-12.168-15.209-19.987c-11.61-17.022-24.745-36.31-40.628-35.921 c-27.288,0.677-56.674,26.127-71.761,41.237C37.872,123.108,26.688,144.736,28.343,163.642z M137.433,235.157 c-11.367,0-33.839-9.074-54.694-22.091c-33.86-21.133-38.91-36.009-39.51-41.424c-1.459-13.178,6.453-30.427,21.708-47.323 c21.719-24.057,51.367-40.779,72.243-40.779c0.108,0,0.211,0,0.318,0.001c15.911,0.13,29.761,15.521,41.981,29.101 c3.968,4.41,7.716,8.575,11.301,11.958c3.672,3.466,8.137,6.766,12.865,10.261c12.797,9.459,27.302,20.181,27.374,36.725 c0.037,8.42-4.35,17.126-13.037,25.877c-21.28,21.435-63.496,37.645-80.486,37.694C137.475,235.157,137.454,235.157,137.433,235.157 z M137.178,84.54c-20.613,0-49.953,16.585-71.498,40.449c-15.063,16.685-22.884,33.649-21.456,46.544 c1.215,10.975,15.811,26.185,39.045,40.686c20.711,12.927,42.966,21.938,54.163,21.938c0.021,0,0.041,0,0.062,0 c16.827-0.05,58.667-16.132,79.779-37.399c8.494-8.556,12.782-17.023,12.747-25.168c-0.07-16.042-13.744-26.149-26.969-35.925 c-4.752-3.512-9.24-6.83-12.957-10.337c-3.615-3.412-7.376-7.591-11.358-12.017c-12.082-13.426-25.775-28.643-41.245-28.77l0,0 C137.388,84.54,137.282,84.54,137.178,84.54z M142.688,232.626c-0.026,0-0.05,0-0.076,0c-11.5-0.019-31.431-6.529-48.469-15.832 c-11.952-6.525-32.272-19.807-34.074-35.43l0,0c-1.308-11.345,4.308-24.678,15.812-37.544c17.954-20.08,46.562-35.186,66.608-35.186 c0.043,0,0.082,0,0.125,0c17.078,0.054,34.156,15.511,47.879,27.931l1.063,0.961c2.228,2.014,4.597,4.004,7.105,6.111 c11.844,9.949,25.268,21.226,25.351,37.666c0.042,8.474-3.633,16.481-10.926,23.799 C195.408,222.843,160.279,232.626,142.688,232.626z M61.063,181.249c1.278,11.085,13.51,23.72,33.56,34.668 c16.906,9.23,36.641,15.69,47.991,15.709c0.02,0,0.042,0,0.062,0c15.309,0,51.613-9.077,69.702-27.229 c7.098-7.123,10.676-14.891,10.635-23.088c-0.081-15.978-13.316-27.097-24.994-36.906c-2.515-2.113-4.891-4.109-7.132-6.135 l-1.063-0.962c-13.596-12.305-30.518-27.62-47.211-27.672c-19.756-0.048-48.163,14.921-65.984,34.853 C65.316,157.137,59.789,170.194,61.063,181.249z M148.036,234.321c-19.32,0-67.866-16.593-70.555-42.156 c-1.084-10.309,3.348-21.256,12.818-31.659c14.819-16.281,39.748-28.391,58.01-28.209c21.052,0.229,69.11,35.073,69.29,59.812 c0.121,16.666-14.83,26.885-27.394,32.523c-14.572,6.54-31.934,9.606-41.897,9.688C148.218,234.321,148.127,234.321,148.036,234.321 z M147.861,133.293c-17.956,0-42.293,11.922-56.823,27.885c-6.466,7.104-13.894,18.227-12.563,30.881 c1.507,14.323,18.335,24.783,28.233,29.743c13.71,6.87,30.794,11.566,41.592,11.518c20.187-0.166,68.51-12.258,68.299-41.204 c-0.078-10.768-10.011-25.13-26.571-38.42c-15.068-12.094-31.839-20.292-41.73-20.4 C148.154,133.294,148.007,133.293,147.861,133.293z M157.035,238.61c-0.952,0-1.909-0.017-2.874-0.051 c-9.064-0.325-23.173-2.673-35.589-8.291c-14.494-6.558-22.619-15.881-23.496-26.961c-0.768-9.7,2.409-18.647,9.444-26.595 c12.755-14.409,34.672-21.658,49.638-22.296c12.076-0.489,29.288,7.518,41.875,19.529c9.904,9.451,15.381,19.864,15.42,29.32 c0.032,7.659-2.86,14.361-8.596,19.919C195.016,230.783,177.555,238.61,157.035,238.61z M155.282,155.393 c-0.365,0-0.725,0.008-1.081,0.023c-14.762,0.629-36.371,7.769-48.932,21.959c-6.848,7.735-9.942,16.434-9.196,25.854l0,0 c1.935,24.436,39.996,33.682,58.125,34.33c21.461,0.778,39.906-7.285,47.963-15.092c5.533-5.361,8.323-11.82,8.292-19.197 c-0.039-9.182-5.405-19.339-15.111-28.601C183.31,163.187,167.034,155.393,155.282,155.393z M160.728,243.668 c-0.297,0-0.59-0.002-0.882-0.006c-18.367-0.265-46.141-8.362-47.375-29.591c-0.505-8.671,2.353-16.425,8.493-23.046 c10.07-10.858,26.784-15.929,38.881-16.137l0,0c10.968-0.183,24.541,5.78,33.829,14.848c5.239,5.113,11.499,13.481,11.573,24.302 c0.046,6.649-2.334,12.406-7.074,17.11C188.835,240.417,172.385,243.668,160.728,243.668z M159.862,175.889 c-11.885,0.204-28.295,5.174-38.166,15.816c-5.948,6.414-8.716,13.919-8.228,22.308c0.681,11.706,9.847,18.494,17.417,22.128 c8.208,3.94,19.041,6.379,28.975,6.521c11.505,0.158,28.252-2.937,37.608-12.224c4.542-4.508,6.822-10.022,6.778-16.393 c-0.072-10.477-6.169-18.613-11.271-23.595C183.866,181.558,170.586,175.711,159.862,175.889L159.862,175.889z M164.924,247.952 c-7.791,0-16.272-2.084-22.692-5.577c-5.73-3.118-12.629-8.886-12.955-18.658l0,0c-0.229-6.874,2.323-13.269,7.38-18.492 c6.835-7.06,17.923-11.619,28.254-11.619c0.01,0,0.019,0,0.029,0c15.056,0.013,33.57,13.9,33.716,30.09 c0.046,5.178-1.913,9.805-5.824,13.753c-7.185,7.251-19.186,10.501-27.893,10.504C164.935,247.952,164.929,247.952,164.924,247.952z M130.276,223.683c0.535,16.052,20.578,23.269,34.648,23.269c0.005,0,0.01,0,0.015,0c8.224-0.003,20.238-3.199,27.182-10.208 c3.716-3.751,5.578-8.138,5.534-13.039c-0.117-13.087-15.237-29.085-32.717-29.1c-0.009,0-0.019,0-0.028,0 c-10.074,0-20.879,4.439-27.535,11.315C132.512,210.944,130.057,217.086,130.276,223.683L130.276,223.683z M169.329,249.748 c-0.095,0-0.188,0-0.283-0.001c-5.705-0.06-11.457-1.695-15.781-4.487c-5.198-3.355-8.018-8.107-8.156-13.74 c-0.123-5.022,1.693-9.629,5.251-13.324c4.509-4.681,11.668-7.646,18.684-7.738l0.006,0.5l-0.006-0.5 c5.801-0.062,11.892,2.435,16.203,6.718c3.97,3.943,6.138,9.034,6.104,14.335c-0.029,4.536-1.754,8.614-4.989,11.796 C182.249,247.35,175.898,249.748,169.329,249.748z M169.304,211.455c-0.083,0-0.164,0.001-0.247,0.002 c-6.758,0.089-13.646,2.937-17.977,7.433c-3.369,3.497-5.088,7.856-4.972,12.604c0.167,6.84,6.416,17.079,22.947,17.253 c6.401,0.05,12.618-2.233,16.606-6.154c3.041-2.991,4.663-6.825,4.69-11.089c0.032-5.03-2.031-9.867-5.809-13.62 C180.479,213.847,174.799,211.455,169.304,211.455z M171.943,247.368c-0.049,0-0.097-0.001-0.146-0.001 c-7.509-0.062-12.076-4.034-12.217-10.628c-0.063-2.955,0.938-5.591,2.896-7.621c2.264-2.349,5.66-3.728,9.317-3.783 c3.044-0.059,5.97,1.12,8.054,3.199c2.11,2.104,3.204,4.94,3.164,8.2C182.946,241.887,180.001,247.368,171.943,247.368z M171.965,226.333c-0.052,0-0.104,0-0.157,0.001c-3.393,0.052-6.532,1.318-8.612,3.477c-1.769,1.835-2.673,4.223-2.616,6.906 c0.128,5.985,4.324,9.593,11.225,9.649c0.038,0,0.076,0,0.114,0c4.842,0,10.003-2.528,10.092-9.645 c0.037-2.984-0.955-5.571-2.87-7.48C177.282,227.388,174.675,226.333,171.965,226.333z" style="fill: #d8fec6;"/></g><g id="__id251_srohirdywa"><circle cx="56.227" cy="167.862" r="29.76" style="fill: rgb(171, 209, 198);"/></g><g id="__id252_srohirdywa"><circle cx="149.977" cy="210.994" r="19.868" style="fill: rgb(194, 181, 155);"/></g><g id="__id253_srohirdywa"><circle cx="85.987" cy="41.276" r="36.74" style="fill: rgb(219, 244, 207);"/></g></svg>