<svg xmlns="http://www.w3.org/2000/svg" xmlns:xlink="http://www.w3.org/1999/xlink" preserveAspectRatio="xMidYMid meet" version="1.0" viewBox="-0.3 0.0 388.9 500.5" zoomAndPan="magnify" style="fill: rgb(0, 0, 0);" original_string_length="18666"><g id="__id115_shb7cd3ncs"><path d="M386.501,240.761c1.981,3.05-1.266,5.194-1.333,7.834c-0.044,1.701-0.279,3.12-1.022,4.713 c-1.259,2.702-4.105,2.57-5.985,4.061c-0.411,0.326-1.071,0.391-1.391,0.768c-3.483,4.11-7.812,2.934-12.289,2.423 c-2.774-0.317-5.378-2.338-8.363-1.03c-0.226,0.099-0.709-0.506-1.117-0.68c-1.438-0.616-2.786-1.463-4.523-0.708 c-1.228,0.534-2.405,0.295-3.594-0.693c-1.631-1.355-3.381-2.858-5.87-1.909c-0.671,0.256-1.466,0.01-1.885-0.522 c-0.705-0.893-1.828-1.171-2.642-1.198c-1.973-0.066-3.657-1.464-5.481-1.281c-2.087,0.21-2.783-1.629-4.166-2.334 c-2.12-1.083-4.352-1.381-6.463-2.196c-1.434-0.554-2.267-2.088-3.607-2.967c-1.197-0.786-2.413-1.314-3.761-1.415 c-1.287-0.097-2.404-0.296-2.982-1.58c-0.262-0.581-0.644-0.393-1.116-0.402c-1.982-0.039-3.362-1.082-3.442-3.06 c-0.049-1.227-0.74-0.713-1.162-0.747c-2.749-0.226-7.466-3.05-9.135-5.341c-1.197-1.642-3.283-1.41-4.987-1.936 c-0.68-0.21-1.226-0.211-1.552-1.022c-0.916-2.28-2.682-3.502-5.116-3.877c-0.642-0.099-1.725-0.53-1.756-0.884 c-0.23-2.603-2.83-3.014-4.215-3.614c-2.965-1.285-4.57-3.896-7.023-5.589c-2.624-1.812-5.279-3.561-8.096-5.058 c-0.259-0.138-0.651-0.153-0.798-0.357c-2.105-2.909-5.453-4.447-7.824-6.867c-2.01-2.051-4.926-3.034-6.352-5.676 c-0.246-0.456-0.943-0.795-1.496-0.938c-2.881-0.742-4.27-3.735-7.132-4.607c-0.899-0.274-0.358-2.027-1.344-2.965 c-2.389-2.271-4.836-4.368-7.711-6.048c-1.611-0.942-2.785-2.612-4.214-3.89c-1.391-1.243-2.287-3.044-4.438-3.451 c-0.987-0.186-1.405-1.517-2.164-2.192c-1.891-1.683-3.629-3.744-6.525-3.721c-0.597,0.005-0.562-0.658-0.866-0.968 c-0.427-0.437-0.928-1.239-1.323-1.197c-2.369,0.255-3.072-1.543-4.111-3.012c-0.597-0.845-1.562-1.417-2.549-1.228 c-2.539,0.486-3.877-1.187-5.073-2.818c-0.482-0.658-0.526-1.181-1.411-0.676c-0.227,0.13-0.666,0.192-0.843,0.061 c-2.503-1.841-5.768-2.014-8.254-4.088c-2.26-1.887-5.314-2.591-8.211-2.931c-1.704-0.2-2.931-1.153-4.404-1.664 c-1.391-0.482-2.901-0.27-4.025-0.572c-2.311-0.62-3.864,0.803-5.76,0.92c-2.443,0.152-2.509,1.721-2.295,3.351 c0.253,1.929,1.134,3.73,1.03,5.778c-0.045,0.882,1.113,1.342,1.89,1.764c0.917,0.499,1.623,1.146,1.082,2.181 c-1.089,2.084,0.171,3.176,1.687,3.955c1.407,0.722,2.187,1.727,2.564,3.197c0.538,2.098,2.282,3.239,3.659,4.714 c0.939,1.005,1.854,2.033,2.864,2.978c2.526,2.363,4.89,4.76,6.857,7.741c1.916,2.903,4.506,5.499,6.882,8.159 c2.858-0.506,2.099,2.52,3.295,3.362c2.412,1.698,3.26,4.63,5.672,6.272c1.652,1.125,1.558,3.554,3.073,4.903 c0.187,0.167,0.087,0.766,0.252,0.832c4.2,1.667,4.6,6.468,7.587,9.206c1.515,1.389,2.39,3.655,3.261,5.598 c1.431,3.194,3.342,5.889,5.898,8.21c0.633,0.575,1.572,1.07,0.945,2.298c-0.163,0.318,0.15,1.089,0.479,1.416 c2.721,2.708,4.511,5.914,5.401,9.64c0.051,0.213,0.188,0.501,0.362,0.576c3.773,1.621,3.173,6.665,6.697,8.518 c0.975,0.512,0.986,1.737,1.381,2.704c0.983,2.408,1.073,5.517,4.083,6.678c0.929,0.359,1.294,1.107,1.554,1.869 c0.678,1.984,1.788,3.619,3.495,4.829c0.367,0.26,0.383,0.602,0.493,0.967c0.82,2.714,2.78,4.639,4.724,6.532 c0.805,0.784,0.718,1.638,0.719,2.542c0.001,1.075-0.151,2.006,1.433,2.335c1.026,0.213,1.918,1.237,1.55,2.652 c-0.527,2.023,1.203,3.332,1.678,5.048c0.157,0.567,0.696,1.066,0.202,1.615c-1.253,1.393-0.13,2.622,0.703,3.069 c2.119,1.138,1.65,3.163,1.379,4.525c-0.284,1.428,0.229,2.293,0.607,3.41c0.493,1.459,0.736,2.892-0.468,4.292 c-1.031,1.198-1.865,2.598-2.71,3.931c-1.177,1.857-2.658,1.792-4.303,1.257c-1.229-0.4-2.393-0.41-3.597-0.084 c-1.727,0.467-3.436,0.847-4.986-0.486c-0.112-0.097-0.303-0.232-0.401-0.197c-3.004,1.1-6.041-0.46-8.985,0.102 c-1.085,0.207-1.961,0.123-2.433-0.516c-0.955-1.293-2.154-1.636-3.582-1.505c-1.641,0.152-2.802-0.426-4.078-1.544 c-1.523-1.334-3.579-2.089-5.724-1.609c-1.046,0.234-2.344-0.293-2.531-0.62c-0.966-1.688-3.6-1.107-4.164-3.321 c-0.141-0.552-1.34-0.928-2.117-1.208c-2.199-0.794-3.966-2.4-6.199-3.153c-1.307-0.441-2.299-1.111-3.148-2.599 c-0.916-1.606-3.194-2.475-4.952-3.544c-0.889-0.54-2.041-0.692-2.106-2.06c-0.009-0.193-0.209-0.437-0.389-0.552 c-3.651-2.359-6.583-5.788-10.851-7.245c-0.524-0.179-0.87-0.047-1.294,0.07c-1.268,0.352-2.308-0.312-3.181-0.984 c-1.714-1.321-2.499-1.825-4.704-1.355c-1.427,0.304-2.19-1.029-3.663-0.873c-1.053,0.111-2.234-0.083-3.431,0.152 c-3.041,0.596-5.194,2.925-5.182,5.958c0.002,0.555-0.111,1.035-0.322,1.549c-0.359,0.873-0.576,2.292,0.027,2.615 c2.395,1.282,1.415,3.02,0.877,4.653c-0.919,2.788,0.82,5.059,1.521,7.445c0.721,2.452,1.625,4.866,2.19,7.378 c0.05,0.221,0.083,0.526,0.235,0.633c2.613,1.834,2.416,4.928,3.319,7.507c0.388,1.108,0.772,2.127,1.599,2.97 c1.045,1.066,1.395,2.333,0.849,3.751c-0.38,0.986-0.227,2.068,0.566,2.465c2.155,1.078,2.328,3.426,3.607,5.037 c0.691,0.87,0.575,1.908,0.671,2.89c0.417,4.295,3.786,7.596,3.931,12.055c0.043,1.333,1.481,2.599,2.202,3.937 c1.475,2.739,2.28,5.717,2.927,8.734c0.2,0.933,0.647,1.71,1.141,2.468c0.96,1.472,1.683,2.962,2.107,4.74 c0.742,3.109,1.993,6.097,3.008,9.143c0.176,0.526,0.682,0.574,1.018,0.862c0.958,0.823,1.929,1.587,0.877,3.067 c-0.445,0.626-0.435,1.529,0.167,2.158c2.36,2.468,3.251,5.899,4.019,8.822c0.84,3.197,2.793,6.056,2.923,9.434 c0.012,0.303-0.016,0.708,0.158,0.89c3.001,3.128,2.848,7.582,4.724,11.179c0.301,0.577,0.785,1.122,0.312,1.918 c-0.154,0.259,0.149,1.165,0.337,1.196c3.062,0.497,1.769,2.775,1.702,4.365c-0.099,2.341,0.281,4.345,2.12,5.988 c0.663,0.592,1.026,1.54,0.89,2.516c-0.26,1.866,0.635,3.309,1.694,4.678c0.375,0.484,0.955,0.856,0.828,1.562 c-0.676,3.765,2.052,6.588,2.767,9.973c0.18,0.851,0.203,1.67,0.201,2.502c-0.003,1.47-0.146,2.938,1.318,3.93 c0.268,0.182,0.557,0.701,0.483,0.965c-0.788,2.817,0.677,5.239,1.306,7.799c1.218,4.955,0.75,10.168,2.335,15.066 c0.181,0.559-0.111,1.039-0.494,1.465c-0.251,0.28-0.703,0.702-0.63,0.902c0.798,2.19-0.351,4.403,0.408,6.75 c0.722,2.235,0.177,4.885-0.084,7.393c-0.309,2.971-2.238,4.104-4.022,5.735c-1.472,1.346-4.675,2.011-6.309,0.817 c-0.859-0.627-1.382-1.01-2.245,0.048c-0.762,0.935-2.093,0.888-2.762,0.037c-0.637-0.81-1.643-1.138-2.149-1.051 c-3.228,0.556-5.599-2.006-8.618-2.163c-1.157-0.06-2.492-1.223-2.843-1.903c-1.184-2.29-5.014-1.868-4.991-5.131 c-2.582-1.062-2.924-3.881-4.501-5.726c-1.764-2.065-2.226-5.051-4.704-6.609c-0.16-0.101-0.254-0.386-0.287-0.6 c-0.512-3.387-0.493-3.401-3.087-6.368c-0.51-0.583-0.716-1.208-0.596-1.905c0.447-2.608-0.908-4.313-2.778-5.803 c-0.286-0.228-0.638-0.587-0.657-0.904c-0.262-4.38-3.399-7.574-4.734-11.539c-1.42-4.216-3.885-8.081-5.288-12.3 c-0.831-2.5-1.983-5.034-1.977-7.802c0.001-0.418,0.166-1.033-0.358-1.251c-2.873-1.195-2.613-4.05-3.614-6.313 c-1.025-2.318-2.314-4.637-3.265-6.939c-1.194-2.89-2.664-5.626-3.946-8.457c-0.562-1.24-1.185-2.551-2.122-3.489 c-0.67-0.671-1.038-1.203-0.976-2.102c0.021-0.299,0.046-0.75-0.126-0.888c-2.058-1.645-2.624-3.701-2.035-6.238 c0.11-0.472-0.594-1.133-1.193-1.282c-0.769-0.191-1.029-0.8-1.086-1.333c-0.338-3.206-2.698-5.415-3.94-8.171 c-0.551-1.222-1.981-1.761-2.118-3.533c-0.092-1.197,1.985-1.26,0.832-2.539c-0.654-0.725-1.764-0.907-2.09-2.03 c-0.935-3.221-2.651-6.017-4.809-8.571c-0.959-1.134-0.116-2.625-0.917-4.088c-1.081-1.973-1.812-4.066-3.431-5.801 c-1.902-2.039-1.913-5.094-3.341-7.38c-1.795-2.874-1.723-6.818-5.061-8.791c-1.022-0.604-0.559-2.024-1.098-2.605 c-2.395-2.584-3.187-5.945-4.713-8.94c-0.341-0.669-0.749-1.062-1.517-1.229c-1.427-0.31-2.252-1.192-2.199-2.753 c0.017-0.516-0.014-0.966-0.489-1.431c-1.784-1.745-3.054-3.89-3.996-6.168c-0.432-1.044-1.576-0.393-2.043-1.417 c-1.469-3.225-3.625-6.06-5.551-9.026c-0.763-1.175-2.174-1.264-3.038-2.29c-1.11-1.318-2.269-2.487-2.856-4.216 c-0.66-1.943-2.53-2.735-4.173-3.845c-2.461-1.663-4.398-4.093-6.001-6.609c-1.053-1.653-3.319-2.014-3.837-4.1 c-0.641-2.581-3.246-3.876-4.899-5.164c-1.941-1.513-3.2-3.662-5.148-4.874c-2.436-1.516-4.463-3.263-6.074-5.577 c-0.32-0.46-0.749-0.829-1.348-0.747c-1.198,0.163-1.744-0.722-2.494-1.378c-1.836-1.605-3.111-3.841-5.912-4.354 c-1.371-0.251-1.172-2.427-2.352-3.442c-0.818-0.704-1.4-1.501-2.492-2.06c-2.7-1.384-5.159-3.427-7.229-5.489 c-2.175-2.166-5.115-3.443-6.815-6.21c-0.764-1.243-2.923-1.177-4.078-2.537c-0.634-0.747-1.229-1.182-1.599-2.307 c-0.71-2.16-2.406-3.936-4.573-4.978c-0.577-0.277-1.337-0.373-1.097-1.133c0.338-1.071-0.365-1.651-0.9-2.199 c-1.036-1.06-1.459-2.325-1.694-3.712c-0.045-0.264,0.348-0.621-0.105-0.79c-3.33-1.238-2.18-4.842-3.708-7.087 c-1.229-1.806-2.14-4.01-2.534-6.158c-0.519-2.825-3.6-4.811-2.5-8.1c0.182-0.544-0.062-1.135-0.801-1.096 c-1.699,0.089-1.743-1.107-1.492-2.158c0.632-2.649-0.697-5.06-0.826-7.629c-0.082-1.635-0.348-3.334-0.323-5.001 c0.024-1.544,0.646-3.083-0.602-4.501c-0.4-0.455,0.13-1.126,0.306-1.71c0.47-1.56,1.228-3.026,0.487-4.856 c-0.566-1.398,2.927-6.787,4.469-7.121c1.42-0.308,2.912,0.11,4.345-0.765c0.609-0.372,1.551-0.4,2.192-0.973 c0.425-0.38,0.918-0.696,1.42-0.198c1.028,1.019,2.074,1.02,3.356,0.43c1.057-0.487,1.214,1.007,1.974,1.213 c3.343,0.903,6.309,2.868,9.766,3.448c0.287,0.048,0.645,0.169,0.807,0.382c1.421,1.868,3.581,2.364,5.577,3.279 c2.984,1.368,6.187,2.727,8.499,4.928c1.622,1.544,3.309,2.382,5.178,3.238c0.289,0.132,0.422,0.611,0.62,0.934 c1.927,3.127,5.061,4.675,8.298,5.816c1.011,0.356,1.954,0.511,2.867,1.227c0.661,0.519,1.035,0.961,1.194,1.754 c0.421,2.104,2.049,3.118,3.845,3.767c2.013,0.728,3.673,1.611,5.117,3.408c2.295,2.856,4.792,5.843,7.854,7.709 c3.236,1.972,5.446,5.635,9.621,6.064c0.905,2.772,5.241,1.703,5.661,5.043c0.017,0.137,0.343,0.325,0.533,0.336 c3.533,0.203,4.964,2.816,6.39,5.479c0.238,0.445,0.756,1.029,1.166,1.046c2.56,0.107,3.653,2.174,5.081,3.724 c0.805,0.874,1.956,1.446,2.809,1.686c2.288,0.644,3.634,2.238,5.302,3.655c2.007,1.706,3.92,3.702,6.561,4.523 c1.181,0.367,1.199,1.661,2.1,2.327c1.867,1.38,4.636,1.357,5.825,3.758c0.049,0.099,0.287,0.199,0.392,0.164 c4.305-1.438,7.471,1.696,10.199,3.651c2.752,1.972,5.969,3.108,8.502,5.323c1.129,0.987,1.886-0.017,2.527-0.602 c0.518-0.474,0.909-1.29,0.711-2.11c-0.733-3.038,0.511-5.938,0.576-8.916c0.021-0.969,0.073-1.884-0.587-2.838 c-0.835-1.207,0.236-2.639,0.299-3.964c0.189-4.005-1.188-7.56-2.094-11.258c-0.844-3.446-1.938-6.79-3.293-10.108 c-0.815-1.996-2.238-3.871-2.413-6.226c-0.074-1.004-1.1-1.661-2.285-2.218c-1.799-0.846-2.206-3.084-2.846-4.92 c-0.074-0.214,0.258-0.723-0.05-0.798c-2.339-0.57-2.426-2.841-3.498-4.385c-0.747-1.076-1.173-2.51-3.146-2.629 c-0.877-0.053-1.855-1.889-2.408-3.091c-0.953-2.072-2.542-3.304-4.2-4.782c-1.983-1.768-4.334-3.518-5.522-6.103 c-0.225-0.49-0.316-1.036-0.796-1.324c-2.998-1.795-4.495-4.885-6.58-7.481c-1.673-2.083-3.539-4.043-5.515-5.843 c-2.044-1.862-3.996-3.916-6.713-4.891c-0.57-0.205-0.991-0.491-1.135-1.263c-0.739-3.966-3.69-6.082-6.76-8.234 c-1.444-1.012-2.519-2.696-3.606-4.106c-1.936-2.511-4.27-4.526-6.577-6.594c-0.676-0.605-1.278-1.03-1.219-2.004 c0.023-0.374,0.036-0.837-0.419-0.975c-1.962-0.595-2.936-2.305-4.344-3.538c-2.981-2.61-5.042-5.684-6.338-9.253 c-0.705-1.941-2.605-3.269-2.366-5.721c0.448-4.601-0.538-9.458,2.973-13.399c0.517-0.581,0.926-1.414,0.81-2.335 c-0.088-0.703,0.307-1.208,0.873-1.505c2.696-1.415,5.255-3.149,7.783-4.752c2.382-1.511,4.971-2.206,7.4-3.286 c4.112-1.829,8.206-3.81,13.026-3.926c1.819-0.044,4.026,0.015,5.945-0.801c0.742-0.315,1.692-0.315,2.469,0.119 c0.431,0.241,0.887,0.472,1.3,0.298c4.337-1.826,8.818,0.157,13.191-0.539c0.748-0.119,1.318,0.316,1.948,0.576 c1.411,0.582,2.839,1.017,4.395,0.611c1.974-0.515,4.004,0.443,6.083-0.374c0.608-0.239,2.186,1.029,3.354,1.545 c3.584,1.584,7.602,2.052,10.928,4.338c0.689,0.474,1.741,0.403,2.613,0.632c1.806,0.475,3.626,0.302,5.235,2.065 c1.296,1.42,3.765,1.949,5.912,2.245c0.523,0.072,0.784,0.134,1.029,0.62c0.507,1.005,1.15,1.805,2.503,1.164 c0.418-0.198,1.018,0.004,1.226,0.433c1.293,2.673,4.058,2.91,6.372,3.67c2.016,0.662,3.083,2.547,5.165,3.127 c2.917,0.812,5.45,2.648,8.173,3.973c2.212,1.076,4.244,2.68,6.462,3.906c0.927,0.512,1.614,1.372,2.828,1.2 c0.282-0.04,0.725,0.002,0.865,0.183c2.438,3.151,6.273,4.027,9.602,5.522c2.447,1.099,5.519,1.882,7.047,3.649 c2.998,3.465,7.514,3.447,10.928,6.03c2.934,2.219,6.961,3.705,10.633,4.883c3.614,1.16,7.204,2.491,10.506,4.134 c2.835,1.41,5.858,2.538,8.597,4.259c2.143,1.346,4.421,2.606,7.294,2.791c1.503,0.097,3.587,0.219,5.216,1.952 c1.128,1.2,3.055,2.402,4.952,3.066c1.05,0.367,1.061,1.915,2.563,2.12c2.893,0.396,5.417,1.533,7.751,3.595 c1.714,1.513,3.932,2.965,6.033,3.717c1.686,0.604,2.821,2.617,4.924,2.084c0.131-0.033,0.344,0.018,0.437,0.112 c2.744,2.755,5.372,0.092,8.012-0.26c1.129-0.151,2.418-4.339,1.576-5.084c-1.072-0.95-0.801-1.759-0.549-2.833 c0.347-1.474,0.337-2.925-0.862-4.15c-0.679-0.694-0.748-1.641-0.673-2.591c0.086-1.08-0.117-1.994-1.369-2.322 c-0.457-0.12-0.98-0.51-0.91-0.94c0.528-3.238-2.19-4.774-3.619-6.962c-0.548-0.839-1.021-1.687-1.382-2.605 c-0.503-1.278-1.16-2.352-2.404-3.125c-2.298-1.428-3.96-3.536-5.208-5.889c-0.884-1.667-2.655-2.398-3.614-3.943 c-1.464-2.358-4.212-3.228-6.072-5.091c-1.827-1.83-3.263-4.039-5.2-5.795c-0.741-0.672-1.366-1.428-2.541-1.362 c-0.858,0.048-1.215-0.658-1.694-1.312c-0.684-0.934-1.374-2.092-2.934-1.825c-0.373,0.064-1.012-0.208-1.21-0.525 c-1.796-2.862-5.439-3.018-7.592-5.097c-3.154-3.046-7.274-4.568-10.959-5.902c-4.508-1.632-7.878-5.026-12.564-6.388 c-2.845-0.826-6.244-1.693-8.742-3.934c-0.718-0.645-1.561-0.706-2.709-0.391c-1.379,0.378-2.681-0.77-3.735-1.794 c-0.818-0.795-1.434-1.688-2.915-0.9c-0.802,0.427-1.863,0.261-2.742-0.878c-0.824-1.066-2.242-1.806-3.954-1.465 c-1.859,0.371-3.28-1.189-5.125-1.474c-3.149-0.487-6.226-1.631-9.236-2.757c-2.289-0.856-4.568-1.578-7.004-1.778 c-1.055-0.086-1.688-1.001-2.655-1.395c-3.361-1.369-6.92-2.053-10.242-3.727c-4.031-2.031-8.245-3.869-12.645-5.252 c-4.773-1.5-9.192-4.046-13.759-6.119c-2.292-1.04-4.261-3.285-7.17-2.973c-0.297,0.032-0.64-0.355-0.96-0.551 c-3.276-2.006-6.533-3.996-10.049-5.63c-2.752-1.279-5.724-2.778-7.791-4.872c-2.831-2.869-6.613-4.451-9.156-7.512 c-1.269-1.527-3.116-2.628-3.692-4.705c-0.544-1.963-2.823-2.746-3.162-4.954c-0.545-3.553-0.793-6.98,1.179-10.228 c0.646-1.065,0.492-2.51,1.643-3.381c2.993-2.268,5.718-4.834,9.364-6.255c1.295-0.505,2.525-1.83,3.911-2.607 c3.433-1.925,5.466-5.474,8.755-7.58c0.486-0.311,0.942-0.41,1.474-0.512c2.39-0.458,4.903-0.521,6.937-2.17 c0.432-0.351,0.994-0.093,1.537,0.031c1.931,0.439,3.889,0.798,5.764-0.258c0.269-0.152,0.466-0.207,0.817-0.063 C149.99,2.233,154.867,1.632,157.3,0c0.154,0,0.309,0,0.463,0c0.43,1.131,1.005,2.256,2.445,1.788 c1.815-0.59,3.521-0.436,4.925,0.709c1.112,0.907,1.815-0.116,2.546-0.311c2.663-0.709,5.373,1.07,7.992-0.317 c0.482-0.255,1.219-0.115,1.688,0.436c0.682,0.8,1.563,0.966,2.513,0.639c0.475-0.163,0.892-0.227,1.302,0.074 c2.346,1.728,4.888,1.89,7.545,0.901c0.39-0.145,0.646-0.001,0.794,0.198c1.051,1.408,2.521,0.877,3.733,0.621 c2.477-0.523,4.238,1.397,6.607,1.554c4.173,0.277,8.099,2.032,12.409,2.382c4.157,0.338,8.484,1.281,12.23,3.642 c1.103,0.695,2.378-0.154,3.738,0.114c2.586,0.51,5.057,2.479,7.942,1.237c0.456-0.196,0.839,0.292,1.033,0.73 c0.159,0.359,0.32,0.883,0.721,0.776c2.18-0.578,3.855,1.211,6.046,1.147c1.702-0.05,3.754,0.314,5.297,1.488 c1.041,0.791,2.333,1.378,3.336,0.816c1.682-0.942,2.541-0.083,3.212,1.047c0.487,0.82,1.044,1.246,1.817,0.949 c3.449-1.325,5.901,0.264,8.153,2.6c0.191,0.198,0.572,0.453,0.754,0.385c2.29-0.855,4.496,1.291,6.797,0.16 c0.508-0.25,0.78,0.176,1.001,0.654c1.029,2.225,2.842,2.842,5.139,2.424c0.208-0.038,0.529-0.027,0.647,0.1 c2.112,2.27,5.196,1.804,7.746,2.802c5.16,2.02,10.75,2.802,15.664,5.501c0.621,0.341,1.243,0.525,1.964,0.511 c2.604-0.053,4.446,1.574,6.608,2.707c3.666,1.921,6.706,5.565,11.631,4.733c1.006-0.17,2.191,1.286,3.397,1.625 c2.936,0.824,5.43,2.565,8.083,3.723c2.363,1.031,4.323,3.855,7.499,2.983c0.532-0.146,1.049,0.087,1.457,0.518 c3.041,3.205,7.574,4.135,10.799,7.065c0.151,0.137,0.486,0.268,0.622,0.194c3.007-1.63,4.51,1.146,6.533,2.28 c0.734,0.411,1.167,1.148,2.174,0.502c0.757-0.486,1.397,0.062,2.052,0.557c2.153,1.628,3.742,3.981,6.259,5.109 c2.993,1.341,4.61,4.469,7.679,5.695c1.333,0.532,1.643,2.107,2.448,3.122c1.158,1.459,2.818,2.295,3.849,3.858 c1.317,1.997-0.217,6.121-2.628,6.609c-3.363,0.681-6.718,1.4-10.078,2.098c-0.462,0.096-0.931,0.126-1.306-0.232 c-0.809-0.772-1.596-1.646-2.608-0.25c-1.425-1.471-3.438,0.886-5.09-0.95c-0.879-0.976-2.789-1.64-4.443-0.673 c-0.348,0.204-0.73,0.473-1.04,0.161c-1.864-1.873-4.135-0.675-6.216-0.819c-0.37-0.026-0.806,0.05-1.034-0.188 c-1.726-1.803-3.936-1.067-5.976-1.185c-0.981-0.057-1.72-0.663-2.497-0.983c-1.971-0.811-3.28-2.661-5.773-2.83 c-2.767-0.187-5.472-1.481-8.175-2.381c-2.274-0.757-4.826-1.211-6.666-2.586c-1.806-1.349-3.341-1.885-5.459-1.497 c-0.147,0.027-0.877-1.586-1.909-2.181c-2.609-1.505-5.422-2.155-8.3-2.834c-1.486-0.351-2.154-2.287-3.864-2.763 c-3.178-0.884-5.341-3.884-8.881-4.27c-0.808-0.088-2.022-0.992-2.736-1.745c-1.946-2.055-4.247-2.322-6.9-2.527 c-1.155-0.089-3.159-0.577-3.935-2.201c-0.281-0.589-0.471-1.113-1.276-1.031c-3.235,0.327-6.169-0.646-9.221-1.641 c-1.99-0.649-4.26,0.837-6.407,1.349c-0.451,0.108,0.046,0.645,0.046,0.963c0.001,0.844,1.951,1.65,0.046,2.563 c-0.464,0.222,0.117,0.578,0.274,0.628c1.813,0.567,2.128,2.305,2.853,3.678c0.645,1.222,1.28,2.291,2.881,2.179 c0.765-0.053,1.636,0.441,1.788,0.86c0.793,2.184,3.567,1.966,4.528,3.926c0.196,0.4,1.064,0.495,1.641,0.673 c0.36,0.111,1.044,0.025,1.09,0.177c1.124,3.707,5.179,2.979,7.33,4.889c2.973,2.64,7.341,2.558,9.866,4.937 c2.207,2.08,5.844,2.128,7,5.339c0.165,0.458,0.634,0.532,0.959,0.419c1.977-0.686,3.441,1.231,5.364,1.009 c0.604-0.07,0.796,0.819,0.758,1.476c-0.053,0.91,0.516,1.816,1.224,1.65c3.114-0.727,3.75,2.153,5.409,3.499 c1.659,1.347,2.862,3.067,5.28,3.629c1.951,0.453,3.566,2.23,5.414,3.271c3.945,2.223,6.138,6.371,9.69,8.881 c2.698,1.906,4.683,4.728,7.925,5.97c0.892,0.341,2.363,0.937,2.108,2.619c-0.128,0.845,0.811,0.799,1.271,1.123 c2.339,1.648,4.007,3.638,4.854,6.525c0.586,2,1.116,4.593,4.144,4.73c0.671,0.03,1.068,0.564,1.27,1.19 c1.013,3.132,3.231,5.833,3.538,9.183c0.15,1.636,0.923,3.269,1.794,4.009c2.562,2.177,2.335,5.411,3.758,7.96 c0.519,0.93,0.795,2.016,1.716,2.66c1.29,0.902,0.926,3.087,2.819,3.549c0.305,0.074,0.197,0.64,0.034,1.033 c-1.358,3.281,0.258,5.729,2.299,8.048c0.198,0.225,0.62,0.581,0.58,0.642c-1.464,2.237,0.748,4.2,0.46,6.346 c-0.078,0.58-0.075,1.59,0.22,1.735c2.281,1.124,1.73,3.036,1.606,4.9c-0.078,1.181-0.255,2.364,1.223,3.14 c0.734,0.385,1.389,1.432,0.872,2.566c-0.673,1.476,0.094,2.692,1.15,3.357c1.056,0.665,1.125,1.423,0.875,2.292 c-1.063,3.685-0.459,7.223,0.702,10.758c0.314,0.958,1.259,1.337,1.605,2.391c0.499,1.523,0.275,2.886,0.32,4.362 c0.104,3.383-0.271,6.989,2.148,9.969c0.613,0.755,0.488,1.813,0.473,2.911c-0.048,3.546-0.37,7.053-0.551,10.575 C386.712,236.275,388.672,238.578,386.501,240.761z" style="fill: rgb(216, 254, 198);"/></g></svg>