<svg xmlns="http://www.w3.org/2000/svg" xmlns:xlink="http://www.w3.org/1999/xlink" preserveAspectRatio="xMidYMid meet" version="1.0" viewBox="-0.2 -0.1 526.8 501.1" zoomAndPan="magnify" style="fill: rgb(0, 0, 0);" original_string_length="30247"><g id="__id126_shb7cd3ncs"><path d="M524.077,244.48c-1.819-0.172-2.057-1.17-1.684-2.679c0.312-1.262,0.82-2.288,1.839-3.234 c1.045-0.97,2.123-2.193,0.018-3.633c-1.996-1.366-1.725-2.267,0.497-3.035c0.643-0.223,1.053-0.613,1.002-1.318 c-0.016-0.218-0.186-0.566-0.35-0.609c-0.785-0.209-1.025,0.3-1.221,0.96c-0.195,0.655-1.205,0.439-1.191,0.4 c0.674-1.908-1.638-2.084-1.98-3.595c-1.154-5.091-3.074-6.253-8.336-5.716c-1.394,0.142-2.296-0.722-3.042-1.585 c-2.655-3.069-5.091-6.321-6.762-10.044c-0.48-1.07-2.167-1.566-1.918-2.516c0.68-2.594-0.34-5.171,0.28-7.741 c0.218-0.902,0.837-2.508-1.691-1.463c-1.456,0.602-2.417,1.434-2.825,2.452c-0.749,1.869-1.578,0.204-2.047,0.115 c-1.426-0.27,0.169-0.489,0.132-0.781c-0.123-0.989-1.279-1.891-1.618-1.551c-1.297,1.302-2.394-0.078-3.523,0.135 c0.547-0.686,1.11-1.308,1.57-1.998c0.297-0.446,1.03-0.86,0.411-1.551c-0.572-0.639-1.45-1.032-2.057-0.445 c-1.797,1.74-3.703,1.913-5.909,0.969c-0.409-0.175-1.005,0.122-1.517,0.148c-2.031,0.105-3.593,1.551-5.543,1.908 c-1.982,0.363-3.633,1.065-3.223,3.634c0.035,0.216-0.167,1.053-1.016,0.653c-0.815-0.384-0.941,0.506-1.399,0.868 c-1.982,1.565-2.618,4.149-4.561,5.663c-1.29,1.005-3.29,1.023-4.111,2.625c-0.497,0.969-0.98,1.015-1.775,0.588 c-1.414-0.759-2.039-0.01-1.961,1.259c0.122,1.976-0.75,2.511-2.574,2.474c-1.417-0.029-2.25,0.862-2.017,2.369 c0.092,0.595,0.477,1.365-0.417,1.377c-1.649,0.022-1.764,1.305-2.237,2.32c-0.381,0.818-0.896,1.719-1.81,1.628 c-2.262-0.226-2.726,0.802-2.332,2.744c0.084,0.416-0.113,0.864-0.71,0.833c-0.734-0.434,0.086-1.844-1.272-1.945 c-1.191-0.088-1.964,0.342-2.525,1.394c-0.618,1.158-1.467,1.7-2.936,1.249c-1.487-0.456-2.312,0.64-1.903,1.876 c0.496,1.498,0.147,1.778-1.243,1.832c-0.625,0.025-0.883,0.698-0.984,1.363c-0.12,0.793-0.667,1.244-1.476,1.103 c-2.201-0.383-2.289,0.857-1.875,2.424c0.15,0.569,0.246,1.231-0.415,1.184c-1.753-0.125-1.754,1.282-2.284,2.274 c-0.28,0.523-0.241,1.435-1.321,1.114c-1.327-0.395-1.347,0.039-1.055,1.301c0.404,1.748-1.608,4.563-2.888,4.142 c-2.444-0.805-4.544-0.139-6.774,0.611c-1.51,0.508-3.008,1.102-3.635,2.549c-0.395,0.912-0.555,1.045-1.344,0.589 c-2.048-1.183-2.47,0.036-2.402,1.734c0.044,1.095,0.935,2.602-1.401,2.12c-0.176-0.036-0.633,0.436-0.669,0.71 c-0.326,2.434-3.008,3.57-3.282,6.043c-0.051,0.459-0.567,1.008-1.109,0.391c-1.952-2.225-2.939-0.469-3.94,0.956 c-0.667,0.95-1.08,1.783-2.626,1.196c-1.447-0.549-2.436,0.395-2.03,1.965c0.292,1.133-0.195,1.492-0.985,1.98 c-1.903,1.174-4.817,1.252-4.746,4.611c0.02,0.959-1.186,0.825-1.934,0.712c-1.432-0.215-2.035,0.515-2.306,1.774 c-0.461,2.143-2.91,2.723-3.695,4.658c-0.184,0.454-0.779-0.034-1.125-0.205c-2.258-1.116-2.637,0.186-2.433,1.967 c0.088,0.773,0.275,2.121-0.264,1.991c-2.274-0.547-1.889,1.278-2.418,2.304c-0.453,0.877-1.007,1.672-2.143,1.57 c-1.111-0.099-1.632,0.324-1.527,1.455c0.273,2.92-1.974,3.522-3.993,4.309c-0.982,0.383-1.827,0.945-2.599,1.652 c-0.621,0.569-1.223,1.282-2.151,1.24c-1.486-0.068-2.34,0.971-3.471,1.628c-1.755,1.019-0.81,3.33-2.511,4.264 c-1.336,0.734-4.01,0.565-2.675,3.429c-0.234,0.09-0.466,0.251-0.703,0.259c-1.43,0.051-2.081,1.12-2.725,2.127 c-0.604,0.944-1.08,1.725-2.349,0.767c-0.689-0.52-1.754-0.441-1.836,0.567c-0.161,1.984-1.571,3.161-2.366,4.687 c-1.363,2.616-4.117,3.584-5.517,5.931c-0.118,0.198-0.654,0.308-0.928,0.227c-1.568-0.463-2.794-0.5-2.664,1.692 c0.024,0.404-0.263,0.652-0.646,0.652c-1.251,0-1.978,0.499-1.937,1.85c0.011,0.35-0.133,0.818-0.541,0.69 c-2.482-0.781-2.615,0.722-2.424,2.478c0.041,0.372,0.183,0.745-0.3,0.67c-1.831-0.285-2.155,1.301-2.952,2.293 c-0.326,0.406-0.704,1.095-1.153,0.894c-2.742-1.23-3.342,0.013-3.056,2.466c0.022,0.188-0.175,0.573-0.288,0.58 c-1.896,0.118-2.417,1.753-3.324,2.958c-0.421,0.56-0.829,0.559-1.523,0.332c-1.935-0.634-2.893,0.206-2.46,2.227 c0.251,1.169,0.542,1.89-1.129,1.463c-0.564-0.144-0.984,0.38-1.091,0.898c-0.622,3.031-3.52,4.778-4.311,7.724 c-0.229,0.853-1.139,0.861-1.89,0.941c-0.113-1.373-2.432,0.236-2.393-2.084c0.04-2.333-0.205-4.435,1.508-6.313 c1.248-1.369,0.623-3.34,1.428-4.983c1.058-2.158,2.21-4.373,2.476-6.856c0.143-1.334,0.61-2.366,2.181-2.435 c1.278-0.056,1.063-1.051,0.827-1.701c-0.269-0.742,0.28-1.248,0.289-1.632c0.08-3.389,3.916-4.432,4.502-7.615 c0.224-1.218,1.124-2.121-0.107-3.19c-0.555-0.482-0.378-1.011,0.086-1.278c1.364-0.786,1.055-2.049,1.045-3.229 c-0.009-1.152,0.18-2.857,0.944-3.034c2.124-0.49,1.732-2.24,2.113-3.468c0.301-0.971,0.421-1.546,1.576-1.472 c1.178,0.076,2.205-0.879,1.48-1.696c-2.053-2.314,1.487-4.057,0.367-6.288c-0.243-0.484,1.758-1.243,1.846-2.494 c0.112-1.604,0.489-2.816,2.442-3.023c1.163-0.123,1.181-1.019,1.123-2.156c-0.046-0.888-0.884-2.724,1.44-2.743 c0.722-0.006,1.079-1.187,0.713-1.695c-1.109-1.538-0.496-2.415,0.48-3.812c1.017-1.455,1.155-3.521,1.695-5.314 c0.273-0.905,0.395-1.673,1.822-1.741c1.528-0.073,2.24-1.286,1.083-2.722c-0.685-0.851-1.272-1.32,0.155-2.112 c0.829-0.46,2.311-1.209,1.717-2.476c-1.048-2.235,0.361-3.718,1.157-5.435c0.286-0.618,0.711-1.24,0.761-1.884 c0.105-1.344,0.306-2.385,2.014-2.39c0.8-0.002,1.407-0.743,1.081-1.435c-1.393-2.956,0.465-5.562,0.797-8.315 c0.141-1.169-0.454-3.19,2.187-2.934c0.873,0.085,0.749-1.346,0.684-2.216c-0.056-0.751-1.166-1.109-0.721-2.141 c2.309,0.895,3.016-0.478,3.343-2.38c0.146-0.848-0.317-1.975,1.216-2.136c1.455-0.153,1.784-0.877,1.567-2.484 c-0.204-1.516-0.35-3.913,1.493-4.437c2.455-0.698,2.569-1.556,1.258-3.35c-0.178-0.244-0.282-0.88-0.193-0.931 c2.312-1.301,0.615-3.655,1.458-5.427c1.624-3.41,2.074-7.195,2.712-10.913c0.242-1.41-0.202-3.611,2.319-3.867 c0.179-0.018,0.913-0.938,0.316-1.265c-2.085-1.142-0.306-2.028,0.107-2.984c0.291-0.675,0.676-1.31,1.019-1.962 c-1.57-0.756-2.657-2.77-4.427-2.61c-2.213,0.2-2.398-1.829-2.329-2.442c0.285-2.539-1.879-1.786-2.866-2.311 c-1.245-0.661-1.333,0.988-1.414,1.554c-0.199,1.383-1.205,1.625-2.144,1.903c-1.029,0.305-1.734-0.672-2.003-1.301 c-1.323-3.088-4.324-4.746-6.067-7.49c-2.966-4.67-6.699-8.976-5.6-15.143c0.14-0.783,0.511-1.969-0.37-2.344 c-0.893-0.38-1.897,0.179-2.629,1.283c-0.703-2.335-0.539-4.819-2.64-6.314c-0.114,1.374-0.866,2.384-2.034,3.066 c-0.16,0.094-0.703-0.156-0.84-0.384c-0.907-1.515,0.851-1.94,1.394-2.636c1.09-1.397,1.032-2.732,0.075-3.703 c-1.073-1.089-2.226,0.043-3.143,0.79c-0.731,0.595-1.193,1.358-2.37,0.515c-1.786-1.279-2.328,0.143-2.357,1.55 c-0.014,0.642,0.183,1.359-0.541,1.346c-2.981-0.051-3.717,2.657-5.361,4.222c-0.416,0.396-0.603,1.265-1.298,0.998 c-1.848-0.711-2.787,0.682-4.18,1.258c-1.966,0.814-4.653,0.007-4.666,3.406c-1.659-0.424-1.956,0.958-2.53,1.934 c-1.638,2.783-4.639,4.027-7.225,5.227c-1.435,0.666-3.612-0.488-3.594,2.42c0.003,0.402-0.396,0.124-0.591,0.055 c-1.556-0.547-2.43,0.449-3.296,1.449c-0.586,0.677-1.043,1.206-2.142,0.582c-1.537-0.872-2.362,0.14-2.106,1.556 c0.203,1.124-0.068,1.341-1.015,1.498c-1.644,0.273-2.831,1.823-4.053,2.235c-2.203,0.742-4.519,0.572-4.54,3.737 c-2.366,0.32-4.099,1.698-5.669,3.366c-0.975,1.036-1.74,2.692-3.607,1.13c-0.353-0.295-1.256,0.083-1.237,0.601 c0.104,2.718-1.723,2.951-3.71,3.125c-0.25,0.022-0.686,0.491-0.659,0.705c0.238,1.876-1.15,2.056-2.33,2.928 c-2.161,1.597-4.548,2.546-6.941,3.445c-1.638,0.616-1.172,1.394-1.267,2.728c0.739-0.417,1.112-0.516,1.307-0.758 c0.53-0.661,0.96-1.479,2.005-0.912c0.266,0.144,0.668,0.55,0.616,0.683c-0.33,0.845-1.223,0.729-1.897,1.032 c-2.754,1.238-5.498,2.495-8.267,3.688c-1.372,0.591-2.171,1.198-3.415,0.205c2.223-1.675,4.537-3.058,7.392-3.257 c0.37-0.026,0.804-0.377,1.044-0.699c0.27-0.363,0.884-0.753,0.423-1.316c-0.304-0.372-0.754-0.154-1.191-0.08 c-1.208,0.204-1.862,1.375-3.106,1.563c-4.056,0.615-7.699,2.617-11.65,3.643c-0.803,0.208-1.909,0.821-2.355,0.421 c-0.556-0.498-0.076-1.586,0.134-2.448c1.331-5.455,3.599-10.61,5.184-15.992c0.692-2.349,1.523-5.088,3.631-7.169 c1.42-1.402,1.159-4.263,3.47-5.364c0.112-0.054,0.246-0.343,0.205-0.398c-1.975-2.631,0.941-3.314,1.908-4.735 c2.938-4.32,5.99-8.564,8.873-12.919c1.255-1.895,2.472-3.831,3.66-5.757c2.422-3.924,4.418-8.115,6.484-12.25 c0.42-0.84,0.704-0.372,1.114-0.213c0.066-0.069,0.132-0.137,0.199-0.205c-0.241-1.947,1.329-3.327,1.596-5.137 c0.264-1.793,2.048-2.817,2.518-4.541c1.198-0.29,1.044,0.987,1.541,1.474c1.482-1.142,1.417-2.357,0.434-3.659 c-0.603-1.587-0.378-3.042,0.617-4.422c1.739-2.414,2.991-5.078,3.525-8c0.185-1.011,1.106-1.772,0.835-2.881 c2.56-0.456,2.166-2.217,1.93-4.057c-0.064-0.501,0.396-1.644,1.105-1.482c0.717,0.164,1.14,1.022,0.49,1.895 c-0.071,0.095,0.159,0.413,0.249,0.628c0.257,0.098,0.513,0.197,0.77,0.295c-0.284-2.398,1.894-3.715,1.867-5.913 c-0.033-2.665,0.026-3.043,1.846-4.333c0.152-0.108,0.249-0.478,0.189-0.67c-0.62-1.973,0.92-2.769,2.112-3.539 c1.424-0.92,2.018-2.221,2.157-3.713c0.292-3.123,1.833-5.824,2.741-8.735c0.197-0.631,0.739-0.969,1.422-0.905 c2.566,0.238,2.346-1.308,1.941-2.99c-0.076-0.317-0.179-0.922-0.167-0.924c2.373-0.517,1.094-2.918,2.055-3.979 c0.981-1.082,0.384-2.839,1.835-3.543c1.353-0.656,2.121-1.653,2.304-3.2c0.046-0.384,0.042-1.559,1.18-1.105 c1.997,0.796,2.117-0.696,1.854-1.829c-0.58-2.5,1-3.503,2.445-5.076c1.522-1.657,2.267-3.954,4.171-5.567 c0.769-0.652-0.214-2.653,0.303-4.419c1.132-3.875,0.86-8.182,2.2-12.138c0.295-0.873,0.689-1.695-0.261-2.295 c-0.912-0.577-1.954-1.55-3.041-0.633c-1.71,1.443-1.947-0.52-1.932-1.024c0.055-1.824-1.823-2.331-2.296-3.828 c-0.242-0.767-1.629-0.881-2.032,0.489c-0.345,1.175-0.638,2.366-1.004,3.738c-1.799-1.12-2.866-2.921-3.588-4.246 c-2.161-3.966-1.32-8.967-3.712-13.017c-0.092-0.156,0.248-0.585,0.412-0.873c0.897-1.58,0.138-2.581-1.339-2.797 c-1.643-0.241-2.566-1.217-2.895-2.541c-0.3-1.206-0.585-2.114-1.793-2.686c-1.998-0.946-1.251-4.092-3.685-4.803 c-0.109-0.032-0.044-1.117-0.007-1.121c2.238-0.198,1.533-3.017,3.307-3.679c0.652-0.243,0.912-1.027,0.396-1.769 c-0.469-0.673-1.186-0.84-1.845-0.573c-0.786,0.319-1.446,0.938-2.22,1.304c-0.468,0.221-0.854,0.674-1.607,0.251 c-2.401-1.349-2.647-1.164-3.248,1.915c-0.925,0.134-1.936-1.773-2.38-0.637c-0.868,2.223-2.86,2.933-4.478,3.944 c-2.335,1.46-3.766,5.075-7.547,3.607c-0.27-0.105-1.064,0.297-1.07,0.48c-0.069,2.172-1.812,1.77-3.074,2.031 c-0.554,0.114-1.294,0.364-1.243,0.746c0.29,2.179-0.717,1.96-2.126,1.32c-0.709-0.322-1.355,0.025-1.86,0.508 c-0.943,0.9-1.626,1.974-3.249,0.719c-0.792-0.613-1.771,0.189-1.822,1.445c-0.022,0.54,0.101,1.681-0.6,1.368 c-1.729-0.773-1.697,0.877-2.494,1.387c-1.815,1.162-2.663,3.248-4.582,4.38c-0.863,0.509-0.827,0.642-1.339-0.17 c-1.779-2.828-1.814-2.803-4.675-0.709c-0.53,0.388-0.777,1.103-1.759,0.214c-1.476-1.336-2.577-0.44-2.741,1.315 c-0.109,1.175-0.178,1.871-1.575,1.191c-0.165-0.08-0.731,0.246-0.819,0.489c-1.079,2.986-4.28,3.045-6.451,3.958 c-1.624,0.682-4.071-0.705-4.063,2.585c-2.339-1.024-3.568,3.606-6.219,1.226c-0.234-0.21-1.095-0.044-1.076,0.387 c0.089,2.048-1.37,2.799-2.85,3.275c-2.374,0.765-3.995,3.718-7.074,2.448c-0.552-0.228-1.248,0.145-1.302,0.566 c-0.214,1.679-1.956,1.959-2.558,2.812c-2.034,2.883-5.078,4.539-7.518,6.846c-1.23,1.163-3.482,1.436-5.222,2.714 c-1.229,0.903-2.904,3.549-5.472,2.089c-0.066-0.038-0.52,0.323-0.527,0.507c-0.084,2.265-2.484,2.369-3.44,3.757 c-0.759,1.103-1.429,1.303-2.574,0.671c-0.385-0.213-1.444-0.8-1.432,0.012c0.032,2.153-1.457,2.064-2.825,2.572 c-1.398,0.518-2.345,2.515-4.276,1.086c-0.084-0.062-0.816,0.423-0.907,0.747c-0.781,2.801-3.812,3.429-5.278,5.553 c-0.372,0.54-1.7-0.722-1.621,0.795c0.089,1.713-1.174,1.137-1.978,1.096c-0.744-0.038-1.43-0.69-2.241-0.37 c-3.866,1.53-7.87,2.507-10.426,6.565c-1.041,1.653-2.755,4.775-6.211,3.294c-0.748-0.321-1.718-0.081-2.43,0.574 c-1.07,0.986-1.884,2.561-3.792,1.042c-0.707-0.563-1.235,0.516-1.302,1.138c-0.133,1.229-0.528,1.574-1.816,2.142 c-1.494,0.659-2.476,2.335-4.5,1.366c-0.273-0.131-0.713,0.122-0.741,0.542c-0.19,2.902-3.322,3.081-4.594,4.98 c-0.365,0.545-0.882,0.848-1.556,0.489c-1.675-0.893-2.067,0.153-2.816,1.437c-0.598,1.026-1.607,2.491-3.404,1.742 c-1.368-0.57-1.641,0.248-1.762,1.347c-0.095,0.856,0.17,2.124-1.497,1.502c-0.193-0.072-0.771,0.278-0.806,0.492 c-0.323,1.996-2.516,2.399-3.447,4.086c-0.64,1.16-1.978,2.908-4.139,3.486c-0.891,0.238-3.313-0.252-3.52,1.735 c-0.132,1.263-0.519,1.188-1.607,1.382c-1.212,0.216-2.663,0.645-3.579,1.845c-0.367,0.481-0.773,1.187-1.698,0.685 c-1.664-0.903-2.147,0.229-2.311,1.553c-0.053,0.428,0.035,0.799-0.391,1.077c-1.657,1.079-3.308,2.25-4.978,3.203 c-1.543,0.881-4.131,0.067-3.96,3.122c-2.018-0.678-1.787,1.553-2.764,2.11c-1.65,0.94-2.002,4.193-4.996,2.849 c-0.324-0.145-0.822,0.541-0.897,1.109c-0.067,0.508-0.19,0.682-0.804,0.475c-2.304-0.776-3.331,3.018-5.902,1.716 c-0.263-0.133-0.612,0.725-0.601,1.279c0.008,0.44-0.074,0.827-0.423,1.17c-1.578,1.551-4.883,0.813-5.264,3.963 c-0.005,0.046-0.365-0.004-0.488,0.087c-1.767,1.315-5.107,0.714-5.131,4.187c-0.001,0.095-0.406,0.163-0.597,0.285 c-1.603,1.024-2.661,3.147-5.093,2.52c-0.047-0.012-0.157,0.277-0.258,0.41c-1.535,2.015-3.104,4.007-4.594,6.054 c-0.442,0.608-0.708,1.502-1.588,1.354c-1.22-0.204-1.016,0.724-1.486,1.229c-1.454,1.562-1.769,3.732-3.234,5.216 c-0.286,0.29-0.448,0.424-0.819,0.256c-0.457-0.206-0.728-0.409-0.261-0.902c0.36-0.38,0.463-0.785-0.274-0.788 c-0.481-0.002-1.21-0.15-1.152,0.629c0.055,0.749-0.389,1.448,0.047,2.257c0.78,1.445-0.014,2.789-1.592,2.544 c-0.903-0.14-1.478-0.01-1.564,0.719c-0.445,3.756-4.142,4.288-6.356,6.155c-1.046,0.882-2.372,1.634-3.346,2.733 c-1.788,2.019-3.321,4.309-5.878,5.499c-1.043,0.485-2.087,0.806-1.573,2.443c0.136,0.434-0.857,1.757-1.323,1.753 c-1.924-0.019-1.698,0.656-0.75,1.704c0.492,0.544,0.993,0.951-0.076,1.383c-0.993,0.401-1.572,2.678-2.759,1.388 c-1.673-1.817-1.807-0.31-2.369,0.633c-0.254,0.427-0.417,0.75-1.022,0.962c-1.837,0.643-1.937,2.693-1.501,3.807 c1.068,2.727,2.468,5.386,4.648,7.505c1.194,1.161,2.565,2.102,3.089,3.936c0.4,1.4,1.227,2.985,2.359,3.812 c3.46,2.53,6.468,5.52,9.64,8.351c0.581,0.519,2.117,2.006,3.324,0.804c1.459-1.454,2.097-1.784,3.928-1.015 c1.405,0.59,1.275-0.472,1.446-1.33c0.098-0.49-0.948-1.458,0.491-1.464c1.13-0.005,3.101-0.494,3.186,0.452 c0.192,2.136,1.122,0.721,1.605,0.539c1.439-0.54,1.807-2.215,3.01-3.043c2.827-1.945,6.089-2.932,9.205-4.255 c1.798-0.763,3.7-1.114,4.627-3.605c0.543-1.46,1.905-2.724,2.136-4.569c0.066-0.531,1.119-0.997,1.784-1.381 c1.216-0.703,3.529-0.581,3.777-0.918c1.194-1.628,3.304-1.68,4.49-3.155c1.04-1.293,2.624-2.315,4.16-2.318 c3.106-0.007,5.322-2.885,8.518-2.336c0.236,0.041,0.832-0.543,0.833-0.838c0.006-2.605,2.536-3.334,3.881-4.694 c2.302-2.327,5.327-3.944,8.857-4.408c1.594-0.21,3.36-0.807,4.527-2.238c3.217,2.394,2.157-1.776,3.491-2.279 c0.402-0.152,0.772-0.387,1.175-0.536c0.779-0.287,1.51-0.858,1.682-1.534c0.919-3.618,4.13-3.936,6.852-4.675 c2.64-0.717,4.873-2.882,7.892-2.278c0.158,0.032,0.583-0.344,0.558-0.459c-0.503-2.313,1.588-2.323,2.709-3.315 c2.117-1.873,3.966-3.968,7.221-3.003c0.503,0.149,0.834-0.358,0.857-0.773c0.169-3.077,3.931-3.271,4.79-6.04 c0.281-0.905,1.522-1.822,1.411-3.27c2.08,1.662,4.203-0.095,5.167-0.799c3.109-2.272,6.846-2.112,10.16-3.385 c1.623-0.623,2.955-0.998,3.919-2.494c0.687-1.067,2.007-2.244,2.959-2.089c1.804,0.293,2.889,0.479,2.858-1.809 c-0.004-0.329,0.515-0.979,0.719-0.951c2.555,0.349,3.366-4.089,6.451-2.322c0.397,0.227,0.962-0.412,1.028-0.951 c0.092-0.748,0.565-0.804,1.135-1.096c1.643-0.841,4.052,0.058,5.064-2.278c0.2-0.461,0.688,0.196,1.046,0.356 c1.514,0.674,2.805,0.851,2.553-1.477c-0.038-0.348-0.197-0.821,0.128-0.855c2.245-0.235,3.382-2.5,5.431-2.954 c1.737-0.385,3.178-2.184,5.259-1.105c0.368,0.191,0.847-0.288,0.796-0.779c-0.182-1.731,0.911-2.102,2.278-2.447 c0.883-0.223,1.813-0.698,1.895-1.872c0.037-0.532,0.068-1.093,0.792-1.091c2.222,0.008,4.178-1.611,6.484-1.066 c-1.516,1.161-3.125,2.66-4,3.96c-0.917,1.362-1.542,2.49-3.089,3.189c-0.421,0.191-0.341,1.307,0.267,1.846 c0.761,0.675,0.262,1.469-0.142,1.768c-2.744,2.034-2.333,6.811-6.605,7.523c-0.747,0.124-0.596,1.117-0.419,1.58 c0.666,1.74,0.625,2.702-1.693,2.643c-1.048-0.026-2.083,0.788-1.068,2.12c1.043,1.367,0.219,2.167-0.718,3.03 c-1.242,1.143-1.967,2.329-0.027,3.515c0.299,0.183,0.932,0.166,0.068,0.656c-1.563,0.887-0.295,2.952-2.077,4.474 c-1.665,1.423-2.694,4.513-3.779,6.991c-1.883,4.303-7.312,5.706-8.792,10.437c-0.16,0.512-0.784-0.033-1.132,0.057 c-1.562,0.402-3.052,1.068-1.373,2.861c0.783,0.836,0.21,1.533-0.102,1.646c-3.396,1.222-0.624,5.744-3.805,7.047 c-0.107,0.044-0.048,0.669,0.044,0.992c0.363,1.277-0.163,2.307-0.828,3.321c-0.322,0.491-1.063,0.934-0.767,1.559 c1.179,2.487-1.101,3.371-2.059,4.942c-2.167,3.556-7.503,4.39-7.955,9.392c-0.049,0.541-0.727,0.524-1.296,0.494 c-1.474-0.078-2.179,0.686-2.216,2.185c-0.067,2.704-0.657,5.187-3.259,6.665c-0.461,0.262-0.626,0.825-0.4,1.102 c1.591,1.943-0.015,2.989-1.024,4.311c-0.548,0.718-1.257,1.877-1.026,2.532c1.124,3.195-1.298,4.97-2.872,6.694 c-1.746,1.913-2.655,4.794-5.663,5.53c-0.952,0.233-1.266,1.132-0.359,2.016c0.708,0.691,0.635,1.54-0.135,1.995 c-1.651,0.976-1.071,3.936-3.812,4.019c-0.783,0.024-0.756,1.259-0.233,1.958c0.948,1.267,0.021,1.87-0.825,2.475 c-1.569,1.125-2.019,3.626-4.501,3.664c-0.128,0.002-0.438,0.76-0.343,0.86c1.662,1.742,0.114,2.939-0.727,4.187 c-0.626,0.928-0.588,1.682-0.026,2.617c0.674,1.121,0.587,1.884-1.072,1.919c-1.16,0.025-2.591,0.645-1.77,2.015 c0.916,1.529,0.109,2.135-0.762,2.902c-1.353,1.192-3.306,2.43-3.762,3.73c-0.63,1.794-1.496,1.996-2.886,2.278 c-0.894,0.181-1.357,0.802-0.706,1.712c0.894,1.25,0.154,2.052-0.508,3.141c-0.954,1.569-3.966,2.641-1.718,5.312 c0.054,0.064-0.429,0.765-0.777,0.951c-2.009,1.069-2.164,4.178-4.906,4.437c-0.206,0.019-0.53,0.314-0.552,0.508 c-0.145,1.301-1.003,1.905-1.972,2.677c-1.166,0.929-2.965,2.902-2.661,3.513c1.174,2.359-0.341,3.601-1.23,5.24 c-0.315,0.581-0.545,1.696,0.326,2.064c1.301,0.55,0.672,1.435,0.542,2.152c-0.576,3.182-1.909,5.992-4.29,8.257 c-2.087,1.986-3.326,4.832-6.266,5.979c-0.681,0.266-0.547,1.319-0.294,1.899c0.533,1.22,0.405,1.583-1.05,1.68 c-1.781,0.119-3.079,1.069-1.364,2.828c0.773,0.793,0.361,1.293,0.036,1.641c-0.9,0.965-1.448,2.117-2.131,3.206 c-0.7,1.116-1.838,1.872-3.126,2.177c-0.7,0.166-1.853-1.084-2.121,0.27c-0.22,1.112-0.188,2.602,1.12,3.312 c0.586,0.318,0.902,0.565,0.465,1.102c-1.678,2.06,0.478,4.122,1.192,4.485c3.306,1.677,4.317,5.082,5.406,7.76 c1.408,3.464,4.222,5.165,6.53,7.381c1.377,1.323,1.712,3.893,4.196,4.071c0.068,0.005,0.168,0.477,0.143,0.721 c-0.136,1.353,1.023,2.298,1.71,2.732c3.289,2.078,5.791,5.442,9.63,6.486c1.647,0.448,2.508,2.071,4.239,2.101 c1.816,0.032,4.01-1.822,5.297,1.023c0.032,0.07,0.361-0.039,0.492,0.037c1.255,0.733,2.659,0.422,3.965,0.641 c2.944,0.495,4.178-0.371,4.174-3.39c-0.002-1.307,1.325-2.619,2.114-1.976c2.123,1.732,2.569,0.26,3.388-1.138 c0.288-0.492,0.868-0.834,1.357-1.185c1.968-1.414,4.373-1.914,6.586-2.597c2.031-0.627,3.216-3.215,5.955-2.278 c1.138,0.389,1.085-1.309,1.417-2.107c0.39-0.938,0.562-1.865,1.912-1.095c0.312,0.178,1.165,0.085,1.182,0.002 c0.539-2.742,3.137-3.239,4.836-4.728c0.51-0.447,0.564-1.429,1.646-1.353c0.574,0.04,0.907-0.261,1.078-0.878 c1.22-4.418,4.979-5.574,8.749-6.434c1.556-0.355,3.019-0.158,2.459-2.427c-0.218-0.886,0.637-0.992,1.108-1.111 c2.295-0.58,2.698-3.685,5.395-3.918c0.52-0.045,1.032-0.867,2.034-0.43c0.874,0.381,2.299,0.113,2.042-1.13 c-0.364-1.763,0.847-1.682,1.738-2.131c0.674-0.34,1.794-0.304,1.899-1.168c0.231-1.915,1.714-1.842,2.989-2.262 c1.832-0.604,3.898-0.992,5.318-2.144c0.756-0.614,0.958-1.022,1.907-0.617c0.771,0.329,2.174,0.581,2.222-0.299 c0.082-1.522,1.41-1.571,1.849-2.283c0.894-1.45,3.087-1.021,3.512-2.919c0.109-0.488,0.784-0.164,1.365,0.225 c0.647,0.434,2.28,0.921,2.276-0.835c-0.004-1.752,0.763-2.365,2.329-2.711c0.974-0.215,2.086-0.885,1.738-2.148 c-0.226-0.821,0.284-0.781,0.621-1.049c1.247-0.99,3.686,0.152,4.114-2.299c0.573,0.142,1.139,0.351,1.721,0.411 c0.897,0.092,2.158-0.069,1.928-1.102c-0.469-2.104,0.966-2.094,2.181-2.609c1.872-0.794,1.885-1.775,0.391-3.079 c-0.6-0.523-1.235-1.543,0.215-2.101c0.874-0.336,1.924-0.484,2.58-1.07c1.845-1.647,6.121,0.427,6.137-4 c0-0.111,0.61-0.221,0.937-0.33c2.465-0.822,4.489-2.951,7.418-2.436c0.536,0.094,0.863-0.459,1.058-0.98 c1.212-3.225,3.784-4.685,6.877-5.835c1.541-0.573,2.758-1.949,4.661-1.845c0.443,0.024,0.634-0.844,0.384-1.329 c-0.371-0.718-0.124-1.286,0.473-1.462c1.666-0.491,2.702-1.717,3.672-2.981c0.837-1.091,1.554,0.083,2.315-0.051 c0.062,0.463,0.345,1.183,0.152,1.349c-2.445,2.102-2.355,6.109-5.714,7.541c-0.558,0.238-0.89,1.025-1.306,1.574 c-2.35,3.101-4.179,6.537-6.595,9.63c-2.778,3.557-4.807,7.705-7.108,11.628c-5.313,9.058-7.549,19.371-11.556,28.975 c-4.046,9.7-8.189,19.374-12.832,28.755c-4.345,8.781-7.757,17.836-11.052,26.995c-1.636,4.547-3.687,8.955-5.123,13.56 c-1.711,5.486-2.977,11.112-4.412,16.683c-2.424,9.415-3.999,18.888-1.685,28.578c0.539,2.257,0.62,4.959,1.956,6.611 c2.024,2.503,2.054,5.254,2.535,8.026c0.687,3.958,1.5,5.178,4.696,7.324c0.514,0.345,0.748,1.124,1.081,1.72 c0.774,1.384,1.191,2.945,2.592,3.992c0.782,0.585,1.546,1.478,1.603,2.577c0.085,1.654,1.016,2.778,2.49,2.705 c1.35-0.067,2.975-0.578,3.426-2.242c0.663-2.451,2.105-0.842,3.216-0.655c0.44,0.074,0.796,0.88,1.201,0.89 c3.413,0.082,5.222,2.676,7.618,4.475c1.723,1.294,3.409,3.588,5.711,3.19c3.267-0.565,4.575,1.761,6.355,3.372 c2.163,1.958,4.705,1.968,7.348,2.287c2.447,0.295,5.055-0.17,7.352,1.17c3.19,1.861,5.287,0.9,5.248-2.654 c-0.028-2.598,0.975-4.84,1.695-7.18c0.66-2.144,2.253-2.583,4.098-1.45c0.744,0.457,1.565,0.853,2.432,0.373 c1.1-0.609,0.84-1.852,0.934-2.773c0.074-0.732-0.398-1.588,0.463-2.047c1.674-0.893,3.728-1.497,2.158-4.091 c-0.055-0.092,0.209-0.544,0.375-0.577c1.919-0.389,3.034-2.342,4.946-2.599c0.745-0.1,1.187-0.23,1.199-0.933 c0.022-1.362,0.492-1.594,1.78-1.13c0.958,0.345,2.61,0.033,2.301-1.108c-0.775-2.854,1.422-3.845,2.942-4.644 c1.857-0.977,2.782-3.83,5.684-2.933c0.901,0.278,1.105-0.892,0.867-1.473c-0.643-1.571,0.358-2.143,1.414-2.724 c1.614-0.887,2.334-3.478,4.925-2.582c0.175,0.06,0.688-0.492,0.859-0.849c0.939-1.958,3.357-2.96,3.451-5.539 c0.017-0.465,1.31-1.113,2.092-1.26c0.931-0.174,1.411-0.378,1.352-1.408c-0.091-1.587,0.903-2.107,2.266-1.934 c0.857,0.109,1.301-0.404,1.215-0.936c-0.313-1.937,0.602-1.351,1.728-1.105c1.735,0.38,3.087-0.101,2.419-2.285 c-0.251-0.82,0.157-0.857,0.563-1.323c1.682-1.934,6.184-1.079,5.452-5.455c-0.041-0.242,0.894-0.705,1.422-0.974 c1.448-0.74,2.305-1.769,1.972-3.508c-0.285-1.488,0.281-1.523,1.55-1.088c1.729,0.593,2.818-0.042,2.164-2.027 c-0.346-1.049,0.176-1.652,0.842-1.824c3.452-0.891,4.104-5.698,8.119-5.732c0.059-0.001,0.173-0.127,0.167-0.184 c-0.239-2.269,1.293-0.993,2.118-1.032c0.98-0.046,2.482-0.154,2.197-1.182c-0.753-2.712,1.22-3.261,2.74-4.335 c0.935-0.661,1.02-2.538,2.524-2.29c2.186,0.36,3.079-1.074,3.641-2.534c0.489-1.27,0.762-1.256,1.965-0.878 c1.331,0.418,2.811-0.161,2.276-1.965c-0.43-1.45,0.256-1.773,1.228-2.305c1.292-0.707,2.987-1.359,3.416-2.685 c0.504-1.561,0.981-1.596,2.331-1.207c1.005,0.289,2.926,0.148,2.16-1.376c-1.008-2.003,0.351-2.184,1.309-2.803 c1.682-1.086,2.833-2.629,3.684-4.358c0.481-0.977,0.819-1.227,1.916-0.848c1.114,0.385,2.798,0.574,2.281-1.428 c-0.424-1.641,0.434-2.023,1.469-2.664c1.223-0.758,3.202-1.295,1.613-3.406c-0.397-0.528-0.169-0.793,0.301-0.884 c1.877-0.362,3.442-1.449,5.02-2.365c2.616-1.519,6.674-1.184,7.341-5.398c0.029-0.182,0.551-0.409,0.84-0.404 c1.087,0.017,1.47-0.537,1.677-1.542c0.3-1.454,1.114-2.663,2.256-3.635c0.726-0.618,1.504-1.222,1.069-2.368 c0.125-0.103,0.235-0.22,0.33-0.351c0.788,0.073,1.891,0.221,2.114-0.549c0.41-1.415,1.1-2.13,2.301-3.121 c2.834-2.34,2.779-2.817,5.894-3.617c0.671-0.173,1.033-0.577,1.105-1.26c0.053-0.502-0.001-1.259,0.66-1.208 c1.951,0.149,1.877-1.182,2.15-2.476c0.144-0.684,0.498-1.473,1.315-1.828c1.32-0.573,1.867-1.7,2.121-3.042 c0.097-0.513,2.74-3.149,3-3.013c2.229,1.163,2.839-0.072,3.016-1.989c0.029-0.316-0.048-0.801,0.124-0.921 c2.313-1.614,4.611-3.33,7.264-4.267c0.654-0.231,1.136,0.002,1.228-0.901c0.124-1.223,0.622-1.497,1.926-1.041 c1.706,0.596,3.038,0.098,2.136-2.099c-0.457-1.113,0.492-1.094,0.89-1.437c1.211-1.046,3.224-1.474,2.542-3.838 c-0.114-0.396,0.515-0.955,1.103-0.839c2.508,0.497,3.75-2.437,6.159-2.239c0.353,0.029,0.53-0.442,0.629-0.931 c0.64-3.143,2.348,0.228,3.703-0.464c0.843-0.43,0.478,1.036,0.187,1.862c-0.698,1.982-2.449,3.869-0.669,6.196 c0.421,0.55-0.51,0.989-0.78,1.5c-0.715,1.351-2.367,3.481-1.996,3.926c2.366,2.84-3.001,4.215-1.034,6.713 c-2.66,0.715-3.362,1.941-1.888,4.614c0.328,0.596-0.952,2.915-2.208,4.088c-0.81,0.757-1.641,1.916-1.208,2.959 c0.679,1.638-0.182,1.7-1.314,1.947c-1.651,0.36-2.034,1.743-0.95,2.639c1.286,1.063,0.773,1.721,0.254,2.712 c-0.432,0.823-1.167,1.735-0.703,2.658c0.82,1.633,0.038,3.029-0.853,3.979c-1.559,1.663-1.726,4.209-3.798,5.494 c-0.781,0.484-0.907,1.466-0.097,1.962c1.582,0.968,0.822,1.932,0.288,3.028c-0.474,0.972-1.456,2.188-0.367,3.048 c0.979,0.773,1.375,1.006,0.795,2.398c-0.541,1.3,2.474,0.159,2.124,2.046c-0.282,1.516-2.76,0.056-2.591,1.816 c0.095,0.99-0.004,2.038-0.341,2.711c-1.827,3.653-3.835,7.222-5.937,10.726c-0.299,0.498-0.889,0.825-0.572,1.445 c0.677,1.323-0.071,1.526-1.127,1.913c-1.143,0.419-2.404,1.321-1.12,2.676c1.172,1.237,0.901,2.116,0.046,3.278 c-0.766,1.041-1.125,2.496,0.186,3.144c1.967,0.972,1.545,1.84,0.375,2.999c-2.547,2.521-2.533,6.698-5.697,8.841 c-0.176,0.12-0.202,0.724-0.071,0.992c0.776,1.581-0.141,2.834-1.118,3.63c-1.439,1.173-1.185,2.229-0.194,3.223 c1.099,1.102,0.821,1.335-0.495,1.789c-1.359,0.468-2.666,1.288-0.909,2.924c1.074,1,0.512,1.916-0.086,2.986 c-0.721,1.29-1.312,3.216,0.84,3.401c1.72,0.148,0.553,1.995,1.793,1.999c-0.085,1.175-1.03-0.148-1.324,0.457 c-0.181,0.373-0.425,0.717-0.593,1.094c-0.481,1.076,0.665,2.896-1.477,3.241c-0.046,0.007-0.11,0.524-0.007,0.719 c0.322,0.608,0.871,0.505,1.328,0.216c1.047-0.663,2.053-0.684,3.499,0.32c-3.755,0.495-4.196,2.93-3.916,5.794 c0.065,0.668-0.365,0.869-0.97,0.915c-1.181,0.09-1.467,0.409-0.379,1.275c0.704,0.561,0.066,1.024-0.332,1.487 c-1.243,1.447-2.13,3.648-2.195,4.99c-0.095,1.963-0.836,2.634-2.066,3.551c-0.51,0.38-0.492,1.364-0.002,1.634 c2.066,1.14,1.163,2.552,0.469,3.913c-0.457,0.897,0.026,1.56,0.465,2.127c0.392,0.506,1.294,0.521,1.636,0.047 c0.975-1.352,2.223-2.496,3.182-3.766c1.209-1.6,2.22-1.283,3.16-0.423c1.088,0.995,2.36,2.315,2.551,3.639 c0.272,1.888,1.321,2.412,2.73,2.838c0.864,0.262,1.467,0.901,2.208,1.305c1.67,0.913,2.897,2.618,5.381,2.083 c1.446-0.311,3.377-0.206,4.844,0.778c4.501,3.019,9.727,4.179,14.789,5.716c0.808,0.245,1.06,1.324,1.884,1.068 c2.926-0.909,5.31,2.022,8.245,1.109c0.329-0.102,0.892,0.412,1.296,0.709c1.498,1.099,3.134,1.762,5.016,1.788 c0.51,0.007,1.409,0.052,1.159-0.493c-1.028-2.24,1.094-1.509,1.677-1.657c2.472-0.628,4.149-2.591,6.452-3.55 c1.906-0.793-1.532-3.064,0.498-4.395c0.071-0.047-0.149-0.658-0.341-0.931c-0.084-0.119-0.528-0.15-0.659-0.041 c-0.821,0.683-1.497,0.431-1.595-0.489c-0.142-1.334-0.493-3.119,0.182-3.943c0.764-0.932,1.351-1.644,1.206-2.814 c-0.172-1.386,0.219-2.328,1.669-2.764c1.16-0.35,1.362-0.991,1.081-2.341c-0.342-1.641-1.045-4.005,2.079-4.233 c0.516-0.038,0.804-0.625,0.771-1.204c-0.215-3.799,0.274-7.604-0.248-11.423c-0.112-0.823-1.55-3.62,1.829-3.229 c0.77,0.089,1.193-1.323,1.152-2.363c-0.03-0.779-0.127-2.203,0.06-2.247c3.089-0.718,2.462-3.099,2.206-5.078 c-0.28-2.16,2.468-3.226,1.72-5.36c-0.477-1.362-0.7-2.302,1.226-2.449c0.594-0.045,1.504-0.608,1.255-1.328 c-0.572-1.657-2.332-3.158-0.291-4.952c-0.833-4.967-0.909-9.9,0.572-14.782c0.146-0.481-0.03-1.143,0.508-1.39 c3.315-1.52,3.625-5.302,5.822-7.646c0.747-0.796,1.349-1.501,0.69-2.637c-0.37-0.638-0.02-0.855,0.614-1.025 c2.183-0.586,1.631-1.905,0.505-2.917c-1.17-1.051-1.302-1.693,0.208-2.341c0.513-0.22,0.537-0.623,0.465-1.061 c-0.524-3.194,0.095-6.335,0.284-9.503c0.056-0.952-0.071-2.383,0.11-3.072c0.597-2.275,0.166-4.803,1.95-6.904 c1.086-1.279,3.204-3.17,0.49-5.291c1.304-0.257,2.041-0.838,2.523-2.175c0.724-2.01,3.318-3.248,2.515-5.965 c-0.015-0.049,0.4-0.296,0.634-0.338c1.942-0.346,1.763-1.653,1.234-2.943c-0.542-1.322-0.167-2.273,1.049-2.685 c2.397-0.813,1.629-2.042,0.451-3.169c-0.596-0.569-1.163-1.247-0.306-1.514c1.538-0.48,0.974-1.147,0.717-2.116 c-0.258-0.973-0.481-2.19,0.288-2.998c1.514-1.594,1.325-3.035-0.327-4.477c1.313-0.606,2.817-0.606,2.997-2.109 c0.225-1.874-0.002-3.945,2.825-3.946c0.437,0,0.399-0.597,0.31-0.823c-0.744-1.87-0.415-3.805-0.562-5.668 c-0.248-3.148,2.54-5.328,1.784-8.355c-0.096-0.383,0.516-0.324,0.828-0.415c2.377-0.693,2.4-1.849,0.663-3.356 c-0.412-0.357-0.874-0.934-0.254-1.245c1.59-0.799,1.232-2.096,1.034-3.337c-0.176-1.107-0.027-1.719,1.269-1.995 c2.028-0.432,2.043-1.699,0.676-2.923c-0.751-0.672-1.123-1.086-0.143-1.731c0.565-0.373,0.498-0.835,0.333-1.352 c-0.727-2.275,0.449-4.641-0.339-6.936c-0.162-0.472-0.219-1.168,0.46-1.607c2.517-1.628,0.407-5.574,3.443-6.981 c0.019-0.009-0.052-0.308-0.138-0.43c-1.27-1.796,0.606-3.883-0.769-5.655c1.061-0.316,1.705,1.096,2.51,0.306 c2.295-2.253,1.637-5.956,4.414-8.281c1.498-1.254-0.787-5.108,2.798-6.383c0.949-0.337,0.097-1.98-0.608-2.653 c-0.525-0.501-0.978-1.135-0.467-1.414c2.496-1.364-0.661-4.449,1.846-5.71c-1.147-1.486-0.989-3.057-0.788-4.859 c0.222-2.001,1.706-3.823,0.891-5.96c-0.028-0.074,0.174-0.318,0.306-0.357c1.495-0.443,1.448-1.996,2.193-2.963 C526.622,245.531,526.117,244.672,524.077,244.48z M278.746,110.787L278.746,110.787c-0.053-0.058-0.101-0.157-0.159-0.163 C278.645,110.63,278.693,110.729,278.746,110.787z M237.5,307.441c0.095-0.591,0.046-1.252,0.304-1.765 C237.547,306.189,237.596,306.85,237.5,307.441c-0.926,0.72-1.57,1.574-2.036,2.517C235.93,309.016,236.574,308.161,237.5,307.441z M239.274,306.002c-0.512,0.385-0.53,1.038-0.619,1.652C238.744,307.04,238.762,306.387,239.274,306.002 c0.74-1.157,1.754-2.202,2.289-3.444C241.028,303.8,240.014,304.846,239.274,306.002z M521.144,233.286 c0.01-0.259,0.046-0.532,0.243-0.645c-0.196,0.113-0.232,0.386-0.241,0.645c0.011,0.449,0.174,0.81,0.631,0.955 C521.32,234.096,521.157,233.735,521.144,233.286z M496.445,195.625c0.877-0.08,0.882,1.067,0.603,1.332 c-0.858,0.814,1.014,2.407-0.567,2.537c-1.203,0.098-0.373-1.34-0.607-1.622C495.988,196.798,495.171,195.742,496.445,195.625z M362.249,189.28c0.894-0.55,1.308-1.996,2.684-1.4c0.407,0.176,0.178,0.554,0.018,0.874 C364.33,189.997,363.329,189.761,362.249,189.28z M315.818,159.716c0.057-0.644,0.345-1.157,1.065-1.125 c0.402,0.018,0.422,0.435,0.423,0.996c-0.193,0.24-0.429,0.804-0.817,0.943C316.081,160.678,315.776,160.2,315.818,159.716z M264.649,144.45c0.066-0.069,0.132-0.137,0.199-0.205c0.229,0.133,0.35,0.29,0.076,0.487 C264.909,144.743,264.745,144.549,264.649,144.45z" style="fill: rgb(202, 179, 225);"/></g></svg>